<?xml version="1.0" encoding="utf-8"?>
<!-- Generator: Adobe Illustrator 23.1.0, SVG Export Plug-In . SVG Version: 6.00 Build 0)  -->
<svg version="1.1" id="Layer_1" xmlns="http://www.w3.org/2000/svg" xmlns:xlink="http://www.w3.org/1999/xlink" x="0px" y="0px"
	 viewBox="0 0 200 112" style="enable-background:new 0 0 200 112;" xml:space="preserve">
<style type="text/css">
	.st0{fill:#071218;}
	.st1{fill:none;}
</style>
<g>
	<g>
		<g>
			<path class="st0" d="M100.7,50.6c-0.6,0-1.2,0.3-1.6,0.7l0,0c-0.4,0.4-0.6,0.9-0.6,1.5c0,0.7,0.3,1.3,0.8,1.7l0,0
				c0.4,0.3,0.9,0.5,1.4,0.5c1.2,0,2.2-1,2.2-2.2C102.9,51.6,101.9,50.6,100.7,50.6z M98.6,52.6L98.6,52.6c-0.1-0.1-0.1-0.2-0.1-0.2
				l0.1,0l1.1,0.1c0,0-0.3,0.5-0.2,1c0,0,0,0,0,0c0,0,0,0,0,0l0.2-0.2c0,0-0.1,0.5,0.5,0.8c0,0-0.5,0-0.7-0.5c0,0,0,0,0,0
				c0,0,0,0,0,0c0,0-0.1,0.1-0.1,0.1c0,0-0.1-0.2-0.1-0.7c0,0,0,0,0,0c0,0,0,0,0,0l-0.1,0c0,0,0.1-0.2,0.2-0.4c0,0,0,0,0,0
				c0,0,0,0,0,0L98.6,52.6z M100.1,51.5c0,0-0.1-0.1-0.2-0.1c0,0,0.3,0.1,0.5,0.1c-0.5,0.1-0.8,0.3-0.8,0.3
				c-0.3,0.1-0.5,0.3-0.5,0.3c0,0,0,0,0,0c0,0,0,0,0,0c0,0,0,0,0,0c0,0,0.1-0.1,0.3-0.2l0.1-0.1C99.8,51.6,100.1,51.5,100.1,51.5
				C100.1,51.5,100.1,51.5,100.1,51.5z M100.7,54.9c-0.5,0-1-0.2-1.4-0.5l0,0l0,0c0,0,0,0,0,0c0.1-0.1,0.4-0.3,0.8-0.2
				c0,0,0.5,0.1,0.8,0.5c0,0,0.6-0.1,0.8-1c0,0,0-0.1,0,0c0,0-0.1,0-0.1,0c0,0-0.1,0.1-0.1,0.1c-0.1,0-0.1,0-0.1,0
				c-0.1-0.1-0.5-0.4-0.5-0.4c0,0,0-0.1,0-0.1c0-0.1,0.1-0.1,0.1-0.1s0.1-0.1,0.7-0.4c0,0,0.2,0,0.4,0c0,0,0,0,0,0c0,0,0,0.1,0,0.2
				c0,0,0,0,0,0c0,0,0,0,0,0c0,0,0.3-0.3,0.5-0.5c0,0,0.1-0.1-0.1-0.2c0,0,0,0,0,0c0,0,0,0,0,0c0,0,0,0,0,0c0,0,0,0,0,0
				c0,0-0.4-0.2-0.8-0.4c0,0,0,0,0,0c0,0,0,0,0,0c0,0,0.1,0,0.1,0c0,0,0,0,0,0s-1.3-0.8-2.3-0.5l0,0l0.2,0.2l-0.5,0l-0.1,0
				c0.4-0.5,1-0.7,1.6-0.7c1.2,0,2.2,1,2.2,2.2C102.9,54,101.9,54.9,100.7,54.9z M101,51.8c0,0,0.5,0.2,0.7,0.2
				c-0.2-0.1-1.3-0.2-1.3-0.2c0.2-0.1,0.8-0.1,0.8-0.1L101,51.8C101,51.8,101,51.8,101,51.8C101,51.8,101,51.8,101,51.8z
				 M102.3,52.5l-0.8,0c0,0-0.2,0-0.4,0.1c-0.2,0.1-0.5,0.2-0.6,0.4c0,0,0.2-0.4,0.7-0.5c0,0,0.1,0,0.2,0
				C101.4,52.5,102.1,52.5,102.3,52.5z"/>
		</g>
	</g>
	<g>
		<g>
			<path class="st0" d="M136.1,52.3C136.1,52.3,136.1,52.3,136.1,52.3L136.1,52.3C136.1,52.3,136.1,52.3,136.1,52.3L136.1,52.3z
				 M137,51.6c-0.2,0-0.5,0.1-0.6,0.3l0,0c-0.1,0.1-0.2,0.3-0.2,0.4h0l0.4,0c0,0-0.1,0.2-0.1,0.4c0,0,0,0,0,0h0l0.1-0.1
				c0,0,0,0.2,0.2,0.3c0,0-0.2,0-0.3-0.2c0,0,0,0,0,0c0,0,0,0,0,0c0,0,0,0,0,0c0,0,0-0.1,0-0.3v0h0l0,0c0,0,0-0.1,0.1-0.1
				c0,0,0,0,0,0c0,0,0,0,0,0l-0.4,0h0c0,0,0,0.1,0,0.1c0,0.3,0.1,0.5,0.3,0.7l0,0c0.2,0.1,0.3,0.2,0.5,0.2c0.5,0,0.9-0.4,0.9-0.9
				S137.5,51.6,137,51.6z M136.4,52.2L136.4,52.2L136.4,52.2L136.4,52.2L136.4,52.2C136.4,52.2,136.4,52.2,136.4,52.2
				S136.4,52.2,136.4,52.2C136.4,52.2,136.4,52.2,136.4,52.2z M136.6,52c-0.1,0-0.1,0.1-0.1,0.1c0,0,0,0,0,0L136.6,52
				c0.1-0.1,0.2-0.1,0.2-0.1c0,0,0,0,0,0s-0.1,0-0.1-0.1c0,0,0.1,0,0.2,0.1C136.7,52,136.6,52,136.6,52z M137,53.3
				c-0.2,0-0.4-0.1-0.5-0.2l0,0l0,0c0,0,0,0,0,0c0,0,0.2-0.1,0.3-0.1c0,0,0.2,0,0.3,0.2c0,0,0.2,0,0.3-0.4c0,0,0,0,0,0c0,0,0,0,0,0
				c0,0,0,0,0,0c0,0,0,0,0,0c0,0-0.2-0.2-0.2-0.2c0,0,0,0,0,0c0,0,0-0.1,0-0.1s0,0,0.3-0.2c0,0,0.1,0,0.1,0c0,0,0,0,0,0
				c0,0,0,0,0,0.1c0,0,0,0,0,0h0c0,0,0.1-0.1,0.2-0.2c0,0,0,0,0-0.1c0,0,0,0,0,0c0,0,0,0,0,0c0,0,0,0,0,0c0,0,0,0,0,0
				c0,0-0.2-0.1-0.3-0.2l0,0c0,0,0,0,0,0c0,0,0,0,0,0c0,0,0,0,0,0s-0.5-0.3-0.9-0.2l0,0l0.1,0.1l-0.2,0h0c0.2-0.2,0.4-0.3,0.6-0.3
				c0.5,0,0.9,0.4,0.9,0.9C137.8,52.9,137.4,53.3,137,53.3z M137.1,52.1c0,0,0.2,0.1,0.3,0.1c-0.1,0-0.5-0.1-0.5-0.1
				C137,52,137.2,52,137.1,52.1L137.1,52.1C137.1,52.1,137.1,52.1,137.1,52.1C137.1,52.1,137.1,52.1,137.1,52.1z M137.6,52.4l-0.3,0
				c0,0-0.1,0-0.1,0c-0.1,0-0.2,0.1-0.3,0.2c0,0,0.1-0.2,0.3-0.2c0,0,0,0,0.1,0C137.2,52.3,137.5,52.3,137.6,52.4z M136.4,52.2
				L136.4,52.2L136.4,52.2C136.4,52.2,136.4,52.2,136.4,52.2L136.4,52.2z"/>
		</g>
	</g>
	<g>
		<g>
			<path class="st0" d="M62.7,52.2C62.7,52.2,62.7,52.2,62.7,52.2L62.7,52.2C62.7,52.2,62.7,52.2,62.7,52.2L62.7,52.2z M63.5,51.5
				c-0.2,0-0.5,0.1-0.6,0.3l0,0c-0.1,0.1-0.2,0.3-0.2,0.4h0l0.4,0c0,0-0.1,0.2-0.1,0.4c0,0,0,0,0,0h0l0.1-0.1c0,0,0,0.2,0.2,0.3
				c0,0-0.2,0-0.3-0.2c0,0,0,0,0,0c0,0,0,0,0,0c0,0,0,0,0,0c0,0,0-0.1,0-0.3v0h0l0,0c0,0,0-0.1,0.1-0.1c0,0,0,0,0,0c0,0,0,0,0,0
				l-0.4,0h0c0,0,0,0.1,0,0.1c0,0.3,0.1,0.5,0.3,0.7l0,0c0.2,0.1,0.3,0.2,0.5,0.2c0.5,0,0.9-0.4,0.9-0.9
				C64.4,51.9,64,51.5,63.5,51.5z M62.9,52.1C62.9,52.1,62.9,52.1,62.9,52.1C62.9,52.1,62.9,52.1,62.9,52.1L62.9,52.1
				C62.9,52.1,62.9,52.1,62.9,52.1L62.9,52.1L62.9,52.1L62.9,52.1z M63.1,51.9C63,52,63,52,62.9,52c0,0,0,0,0,0L63.1,51.9
				c0.1-0.1,0.2-0.1,0.2-0.1c0,0,0,0,0,0s-0.1,0-0.1-0.1c0,0,0.1,0,0.2,0.1C63.2,51.9,63.1,51.9,63.1,51.9z M63.5,53.2
				c-0.2,0-0.4-0.1-0.5-0.2l0,0l0,0c0,0,0,0,0,0c0,0,0.2-0.1,0.3-0.1c0,0,0.2,0,0.3,0.2c0,0,0.2,0,0.3-0.4c0,0,0,0,0,0c0,0,0,0,0,0
				c0,0,0,0,0,0c0,0,0,0,0,0c0,0-0.2-0.2-0.2-0.2c0,0,0,0,0,0c0,0,0-0.1,0-0.1s0,0,0.3-0.2c0,0,0.1,0,0.1,0c0,0,0,0,0,0
				c0,0,0,0,0,0.1c0,0,0,0,0,0h0c0,0,0.1-0.1,0.2-0.2c0,0,0,0,0-0.1c0,0,0,0,0,0c0,0,0,0,0,0c0,0,0,0,0,0c0,0,0,0,0,0
				c0,0-0.2-0.1-0.3-0.2l0,0c0,0,0,0,0,0c0,0,0,0,0,0c0,0,0,0,0,0s-0.5-0.3-0.9-0.2l0,0l0.1,0.1l-0.2,0h0c0.2-0.2,0.4-0.3,0.6-0.3
				c0.5,0,0.9,0.4,0.9,0.9C64.4,52.8,64,53.2,63.5,53.2z M63.6,52c0,0,0.2,0.1,0.3,0.1c-0.1,0-0.5-0.1-0.5-0.1
				C63.5,51.9,63.7,51.9,63.6,52L63.6,52C63.6,52,63.6,52,63.6,52C63.6,52,63.6,52,63.6,52z M64.1,52.2l-0.3,0c0,0-0.1,0-0.1,0
				c-0.1,0-0.2,0.1-0.3,0.2c0,0,0.1-0.2,0.3-0.2c0,0,0,0,0.1,0C63.8,52.2,64,52.2,64.1,52.2z M62.9,52.1
				C62.9,52.1,62.9,52.1,62.9,52.1C62.9,52.1,62.9,52.1,62.9,52.1C62.9,52.1,62.9,52.1,62.9,52.1C62.9,52.1,62.9,52.1,62.9,52.1z"/>
		</g>
	</g>
	<g>
		<path class="st1" d="M82.1,61.8l0.2,0.4c0.3,0.6,1.1,2.2,1,3.6l3.1,0l2.2,0l23.5-0.1l2.2,0l2.4,0c0-1.4,0.7-2.9,1-3.4l0.2-0.4
			l0.4-0.2c3.7-1.5,13.1-2.2,13.5-2.2l0.1,0l0.1,0c0.5,0.1,0.8,0.3,1.1,0.5c0-0.5,0-1,0-1.6c0-0.7,0-1.5,0-2.2c0-0.4,0-0.7,0-1
			c0-1.1-0.1-1.9-0.2-2.3c0,0,0,0,0,0c-0.1-0.3-0.4-0.8-0.8-1.4c0,0.4-0.1,0.8-0.3,1.2c0,0.1-0.1,0.2-0.2,0.3
			c-0.4,0.6-1.1,1.1-1.9,1.5c-0.8,0.4-1.8,0.7-2.5,0.9c-0.5,0.1-1,0.2-1.2,0.2h0c-0.8,0.1-3.1,0.4-4.4,0.5c-0.4,0-0.7,0.1-0.8,0.1
			c-0.4,0-4.2,0.5-6.8,0.9c-0.1,0-0.1,0-0.2,0c-0.8,0.1-1.5,0.2-2,0.3c-1.7,0.2-2.1,0.3-2.3,0.3c-0.2,0-1.6,0.2-2.9,0.3
			c-3.4,0.4-4.9,0.6-5.2,0.6c-0.6,0-9-0.5-9.9-0.6l-0.1,0c-0.8-0.1-1.6-0.3-2.4-0.4c-0.8-0.1-1.5-0.2-2.3-0.4
			c-2.6-0.4-4.7-0.7-5-0.7c-0.4,0-1.5-0.1-2.7-0.3c-1.6-0.2-3.4-0.5-4-0.6l-0.1,0c-0.3-0.1-0.7-0.2-1.1-0.3C73,55,72,54.7,71,54.4
			c-1.1-0.4-2.2-0.8-2.6-1.3c-0.1-0.1-0.2-0.2-0.3-0.3c-0.2-0.4-0.4-0.9-0.4-1.4l-0.3,0.3c-0.3,0.3-0.5,0.8-0.6,1.2l0,0.1l-0.3,2.1
			c0,0.1,0,0.2,0,0.2c0,0.3-0.1,0.6-0.1,0.9c0,0.4,0,0.7,0,1.1c0,0.4,0,0.8,0.1,1.2c0,0.6,0.1,1.2,0.1,1.7c0.3-0.4,0.8-0.7,1.4-0.8
			l0.1,0l0.1,0c0.4,0,9.8,0.6,13.5,2.2L82.1,61.8z"/>
		<path class="st1" d="M100.7,50.5c-0.7,0-1.3,0.3-1.7,0.7v0c-0.4,0.4-0.6,0.9-0.6,1.5c0,0.7,0.3,1.4,0.8,1.8l0,0
			c0.4,0.3,0.9,0.5,1.4,0.5c1.3,0,2.3-1,2.3-2.3C103,51.5,102,50.5,100.7,50.5z"/>
		<path class="st1" d="M113.6,54.9c0.2,0,0.5-0.1,0.7-0.1c0.6-0.1,1.1-0.2,1.6-0.2l0.3-0.8l0.7-2.1l0.6-2c-0.5,0-1.1,0-1.7,0
			c-0.4,0-0.7,0-1.1,0c-0.7,0-1.4,0-2.1,0c-6.8,0-13.1,0-13.1,0h-11h-3.1h-2.7l0.8,2.4l0.7,2.1l0.2,0.5c0.7,0.1,1.5,0.2,2.3,0.4
			c0.8,0.1,1.5,0.2,2.3,0.4c1.2,0.2,2.3,0.4,2.9,0.5c3.6,0.2,9.3,0.6,9.7,0.6c0.4,0,3.1-0.3,5-0.6c2.3-0.3,2.8-0.3,3-0.3
			c0.2,0,1.3-0.2,2.5-0.3C112.5,55,113,54.9,113.6,54.9z M100.7,55.3c-1.4,0-2.5-1.1-2.5-2.5c0-1.4,1.1-2.5,2.5-2.5
			c1.4,0,2.5,1.1,2.5,2.5S102.1,55.3,100.7,55.3z"/>
		<path class="st1" d="M137,51.5c-0.3,0-0.5,0.1-0.7,0.3l0,0c-0.1,0.2-0.2,0.4-0.2,0.6c0,0.3,0.1,0.5,0.3,0.7l0,0
			c0.2,0.1,0.4,0.2,0.6,0.2c0.5,0,0.9-0.4,0.9-0.9C137.9,52,137.5,51.5,137,51.5z"/>
		<path class="st1" d="M148.9,51.3c0.1-0.2,0.3-0.5,0.5-0.8c-2.9,0.2-9.6,0.5-14.8,0.6c0.2,0.4,0.4,0.9,0.5,1.2
			c0,0.2,0.1,0.5,0.1,0.9l1.8,0.4C141.1,52.9,147.3,51.7,148.9,51.3z M136,52.4c0-0.5,0.4-1,1-1c0.6,0,1,0.4,1,1c0,0.6-0.4,1-1,1
			C136.4,53.4,136,53,136,52.4z"/>
		<path class="st1" d="M51.1,51.3c1.6,0.4,7.8,1.6,11.9,2.4l1.6-0.2l0.1-0.8c0.1-0.5,0.2-1,0.5-1.5c-5.2-0.1-11.7-0.5-14.6-0.6
			C50.8,50.9,50.9,51.1,51.1,51.3z M63.5,51.3c0.5,0,1,0.4,1,1c0,0.5-0.4,1-1,1c-0.6,0-1-0.4-1-1C62.5,51.8,63,51.3,63.5,51.3z"/>
		<path class="st1" d="M62.9,53c0.2,0.1,0.4,0.2,0.6,0.2c0.5,0,0.9-0.4,0.9-0.9c0-0.5-0.4-0.9-0.9-0.9c-0.3,0-0.5,0.1-0.7,0.3l0,0
			c-0.1,0.2-0.2,0.4-0.2,0.6C62.6,52.6,62.7,52.9,62.9,53L62.9,53z"/>
		<path class="st1" d="M81.8,54.2l-0.5-1.3l-1.1-3.1l-0.1-0.3h-0.2l-9.7-0.4c-0.2,0.8-0.3,1.6-0.3,2.1c0,0.1,0,0.3,0.1,0.3
			c0.2,0.1,0.6,0.3,1.2,0.5c1.1,0.4,2.7,0.9,4.2,1.2c0.1,0,0.2,0,0.3,0.1c1,0.2,2.1,0.3,3.1,0.5C80.2,54,81.4,54.2,81.8,54.2
			C81.7,54.2,81.7,54.2,81.8,54.2z"/>
		<path class="st1" d="M109.5,55.4L109.5,55.4C109.5,55.4,109.5,55.4,109.5,55.4C109.5,55.4,109.5,55.4,109.5,55.4z"/>
		<path class="st1" d="M129.7,49.1c-1.4,0.2-4.2,0.3-10,0.4l0,0.1l-0.9,2.9l-0.5,1.7c1.6-0.2,2.4-0.3,2.6-0.3c0.1,0,0.5,0,1-0.1
			c0.8-0.1,2.1-0.3,3.3-0.4c0.2,0,0.4-0.1,0.6-0.1c1.4-0.2,3-0.7,3.7-1.3c0.1-0.1,0.3-0.2,0.3-0.3c0.1-0.1,0.1-0.3,0.2-0.5
			C130,50.6,129.9,49.8,129.7,49.1z"/>
		<path class="st1" d="M150.8,52.6c-0.2,0.6-0.8,0.8-1.3,0.9c-0.3,0.1-0.8,0.2-1.5,0.3c-1.1,0.2-2.5,0.5-4.4,0.9
			c-3.1,0.6-6.3,1.2-6.3,1.2l-0.2,0l-1.7-0.4c0,0.3,0,0.5,0,0.8c0.4,0,0.7,0.1,0.9,0.1c0.4,0.1,0.7,0.1,1.1,0c7.8-1,13.8-2,14.8-2.7
			c0.6-0.4,1.5-0.7,2.6-1.1c3.1-1.1,5.4-2.1,5.4-4.5l-0.2-1.3c-1.6,0.9-5,2.6-7.6,3.2C151.7,51.2,151,52.3,150.8,52.6z"/>
		<path class="st1" d="M161.8,41.7c-0.4-0.3-1.3-0.6-1.8-0.7c0,0.4,0,0.8,0,1.1l0,0.8c0.9,0,1.9-0.2,2.3-0.3
			C162.3,42.3,162.1,41.9,161.8,41.7z"/>
		<path class="st1" d="M131.5,70.6C131.5,70.6,131.6,70.6,131.5,70.6c0.1,0,0.4-0.3,0.4-1.6V69v-6.8c0-0.2-0.1-0.4-0.1-0.5
			c-1.4,0.1-8.9,0.7-12.2,1.8c-0.4,1-0.7,2.1-0.6,2.4c0.2,0.4,1.7,1.7,3.3,3.2c0.7,0.6,1.5,1.3,2.3,1.9
			C126.4,70.8,131.2,70.6,131.5,70.6z"/>
		<path class="st1" d="M81.4,47.3h6.8h11.2c3.9,0,8.7,0.1,13.3,0c2.3,0,4.6,0,6.8-0.1c3.7,0,6.8-0.1,8.7-0.3
			c-0.1-0.1-0.2-0.1-0.3-0.1c-1.9-0.6-2.2-1.9-2.2-2.4c0-0.2,0-0.3,0-0.5l-0.3,0.3l-0.5,0c-0.1,0-4.1-0.2-8.8-0.3
			c-0.8,0-1.5-0.1-2.3-0.1c-3.9-0.2-8-0.3-10.4-0.5c-2.9-0.1-10,0.1-16.3,0.3c-0.8,0-1.6,0.1-2.3,0.1c-5.3,0.2-9.5,0.5-9.6,0.5
			l-0.6,0l0,0c0,0.2-0.1,0.6-0.3,1.2c-0.1,0.5-0.5,0.9-0.9,1c-0.5,0.2-0.9,0.3-1.2,0.5l7.9,0.3L81.4,47.3L81.4,47.3z"/>
		<path class="st1" d="M68.3,61.7c-0.1,0.1-0.1,0.4-0.1,0.5V69v0.1c0,1.3,0.3,1.6,0.3,1.6c0,0,0,0,0.1,0c0.3,0,5.1,0.2,6.8,0.3
			c0.8-0.6,1.5-1.2,2.3-1.9c1.7-1.4,3.1-2.8,3.4-3.2c0.2-0.3-0.1-1.4-0.6-2.4C77.2,62.3,69.8,61.8,68.3,61.7z"/>
		<path class="st1" d="M131.2,42.8c0.1-0.1,0.2-0.2,0.3-0.3c0.2-0.2,0.7-1.1,0.3-1.7c0,0,0-0.1-0.1-0.1c-0.5-0.7-2.8-1.2-3.8-1.1
			c-0.1,0.2-0.2,0.6-0.2,1.2c0,0.3,0,0.6,0,0.9c0,0.4-0.1,0.8-0.4,1.1c0,0-0.1,0.1-0.1,0.1c0.9-0.1,2.8-0.1,3.9-0.1
			C131.1,42.8,131.1,42.8,131.2,42.8z"/>
		<path class="st1" d="M68.1,42.6c0.5,0,1.8,0,3,0c0.5,0,0.9,0,1.3,0.1c-0.2-0.3-0.3-0.7-0.2-1.1c0-0.2,0.1-0.4,0.1-0.7
			c0-0.3,0.1-0.6,0.1-1.1c0-0.1,0-0.2-0.3-0.3c-0.4-0.1-1.1-0.1-1.6-0.1c-1,0-2.6,0.5-3,0.8c0,0.1,0,0.4,0,0.6c0,0.3,0.1,0.6,0.2,1
			C67.7,42.1,67.9,42.5,68.1,42.6z"/>
		<path class="st1" d="M49.2,48.3c4.6,0.3,12.4,0.7,17.6,0.7c-0.1,0.1-0.2,0.3-0.3,0.4l0.4-0.4l1.5-1.7l0.1-0.5l0.2,0
			c0.3-0.4,0.6-0.8,0.8-1c0.1-0.1,0.4-0.4,2-1c-0.7,0-1.9-0.1-3.6-0.1c-1.2,0-1.9-1.1-2.3-1.7c-1.3,0-2.6,0-4,0
			c-4.4-0.1-9.1-0.2-12.9-0.3c-5.3-0.2-6.1-0.3-6.4-0.4c-0.3,0.5-0.4,0.6-0.4,0.6l0,0H42l-0.8,1.6c-0.1,0.2-0.2,0.4-0.3,0.6
			C43,46.2,47.2,48.3,49.2,48.3L49.2,48.3z"/>
		<path class="st1" d="M124.4,73.2l-0.4,0l-0.3-0.3c-0.5-0.4-1.3-1-2.1-1.7c-0.9-0.7-1.9-1.6-2.7-2.3c-0.4-0.4-0.8-0.8-1.1-1.1
			l-3.1,0l-2.2,0l-23.9,0.1l-2.2,0l-4,0c-0.3,0.3-0.6,0.6-1,1c-0.8,0.8-1.8,1.6-2.7,2.3c-0.8,0.7-1.5,1.3-2.1,1.7l-0.3,0.3l-0.4,0
			c-2.7-0.1-6.9-0.3-7.1-0.3c-0.3,0-0.6,0-1-0.2c0,0.2,0,0.4,0,0.6c0,0.6,0.2,1,1,1c0.2,0,0.5,0,2.1,0.2c1.1,0.1,3,0.4,3.3,0.4h24.8
			l14.6,0.3c0.9,0,8.1-0.3,9.3-0.3c1.2,0,7.7-0.3,9.4-0.5c0.1-0.4,0.2-0.9,0.3-1.7c-0.4,0.2-0.7,0.2-1,0.2
			C131.2,72.9,127.1,73,124.4,73.2z"/>
		<path class="st1" d="M68.7,77.1l0.2,1.9c0,2.2,1.5,3.7,3.7,3.7c2.2,0,4-1.8,4-3.9l0-1.4L68.7,77.1z"/>
		<path class="st1" d="M124.3,79c0,2.2,1.5,3.7,3.7,3.7c2.2,0,4-1.8,4-4v-2l-7.9,0.3L124.3,79z"/>
		<path class="st1" d="M42.9,62.1c0-0.1,0-0.2,0-0.4c0.2-1.3,0-1.5-0.1-1.5c-0.8-0.5-3.4-1-4.2-0.9c-0.3,0.6-0.5,2.4-0.5,3.2
			c0.6,0.4,2.6,1,3.3,1.1C41.9,63.2,42.8,62.4,42.9,62.1z"/>
		<path class="st1" d="M64.8,68.5c0-0.2-0.2-3.8-0.5-9.7c0,0,0-0.1,0-0.1c-0.1,0-0.2,0-0.3,0c-0.3,0.1-0.7,0.1-1,0.1
			c-0.2,0-0.5,0-0.7,0c-5.1-0.6-13.9-1.8-15.7-3c-0.4-0.3-1.2-0.6-2.1-0.9c-2.1-0.8-5.1-1.8-6.3-4.2c-0.2,0.6-0.4,1.1-0.5,1.4
			c-0.6,1.8-0.7,5.1-0.7,5.2l0,0.1c0,0.3-0.1,0.5-0.1,0.8c0.2-0.4,0.5-0.7,0.8-0.9c1.4-0.7,5.3,0.4,6.4,1c1.6,0.9,1.3,3,1.1,3.7
			c0,0.1,0,0.1,0,0.1c0,1.6-2.3,3.3-2.9,3.5c-0.1,0.1-0.3,0.1-0.5,0.1c-1.3,0-3.5-0.9-4.2-1.2c-0.2-0.1-0.5-0.3-0.7-0.4
			c0.1,0.8,0.2,1.6,0.3,2.5c0,0.3,0.1,0.4,0.1,0.5c0,0.1,0,0.3,0.2,0.4c0.2,0.2,0.6,0.4,1.1,0.6l7.4,0.6v0L64.8,69v0
			C64.8,68.7,64.8,68.6,64.8,68.5z"/>
		<path class="st1" d="M161.9,70.4c-1.8,0.5-4,0.7-5.6,0.7v0.4c0,1,0.8,1.8,1.8,1.8h2.4c0.5,0,0.9-0.2,1.3-0.5
			c0.3-0.3,0.5-0.8,0.5-1.3l0-1.1L161.9,70.4z"/>
		<path class="st1" d="M138.3,43c-1.6,0-3.1,0-4.6,0.1c-0.2,0.4-0.5,0.8-0.7,1.1c-0.7,0.7-1,0.9-2,0.9c-0.7,0-1.4,0-2,0
			c0.4,0.2,1,0.5,1.6,1l0.2-0.2l0.2,0.6c0.2,0.2,0.4,0.5,0.6,0.7c0.4,0.4,0.9,1.1,1.5,1.8c5.2-0.1,13-0.5,17.6-0.7h0.1
			c2,0,6.2-2.1,8.3-3.2c-0.1-0.2-0.2-0.4-0.3-0.6l-0.8-1.6h0.1l0,0c0,0-0.1-0.1-0.4-0.6c-0.3,0.1-1.1,0.2-6.4,0.4
			C147.4,42.8,142.7,42.9,138.3,43z"/>
		<path class="st1" d="M157.1,60.2c0,0-0.3,0.2-0.1,1.5c0,0.1,0,0.3,0,0.4c0.1,0.4,0.9,1.2,1.4,1.5c0.7-0.1,2.7-0.7,3.3-1.1
			c0.1-0.7-0.2-2.6-0.5-3.2C160.5,59.2,158,59.7,157.1,60.2z"/>
		<path class="st1" d="M163.2,58.2c0-0.3-0.1-0.6-0.1-0.8l0-0.1c0,0-0.1-3.3-0.7-5.2c-0.1-0.3-0.3-0.8-0.5-1.4
			c-1.2,2.4-4.2,3.5-6.3,4.2c-0.9,0.3-1.7,0.6-2.1,0.9c-1.8,1.2-10.6,2.4-15.7,3c-0.2,0-0.5,0-0.7,0c-0.3,0-0.7,0-1-0.1
			c-0.1,0-0.3-0.1-0.5-0.1c0,1,0,1.8,0,2v0l-0.3,8.2l18.9-0.2v0l7.4-0.6c0.5-0.2,0.9-0.4,1.1-0.6c0.2-0.2,0.2-0.3,0.2-0.4
			c0-0.1,0-0.2,0.1-0.5c0.1-0.9,0.2-1.7,0.3-2.5c-0.2,0.2-0.5,0.3-0.7,0.4c-0.7,0.3-2.9,1.2-4.2,1.2c-0.2,0-0.4,0-0.5-0.1
			c-0.6-0.2-2.9-2-2.9-3.5c0,0,0-0.1,0-0.1c-0.1-0.8-0.4-2.8,1.1-3.7c1.1-0.6,5-1.7,6.4-1C162.7,57.5,163,57.8,163.2,58.2z"/>
		<path class="st1" d="M39.8,48.3c0,2.4,2.3,3.4,5.4,4.5c1,0.4,1.9,0.7,2.6,1.1c1,0.6,7,1.7,14.8,2.7c0.4,0,0.7,0,1.1,0
			c0.2,0,0.4-0.1,0.6-0.1c0-0.2,0-0.4,0-0.6c0,0,0-0.1,0-0.1L63,56l-0.2,0c0,0-3.2-0.6-6.3-1.2c-1.8-0.4-3.3-0.7-4.4-0.9
			c-0.6-0.1-1.1-0.2-1.5-0.3c-0.5-0.1-1.2-0.3-1.3-0.9c-0.2-0.4-1-1.4-1.6-2.3c-2.6-0.6-6-2.3-7.6-3.2L39.8,48.3z"/>
		<path class="st1" d="M76.7,40.8c-0.2,0.5-0.4,0.9-0.6,1.3c1.9-0.1,5.7-0.3,10-0.5c5.1-0.2,10.9-0.4,14.6-0.4c1,0,1.9,0,2.6,0
			c2.6,0.1,7,0.3,11.1,0.5c3.8,0.2,7.4,0.3,9.2,0.4l-0.7-1.3l-1.4-2.8c-0.3-0.5-0.7-0.9-1-1.4c-0.8-1.1-1.6-2.1-2.2-2.9
			c-0.5-0.6-0.8-1.1-1-1.3c-0.7-0.1-3-0.3-5-0.4l-13.7-0.3L86.6,32l-4.3,0.2l-0.5,0.7l-2.1,3l-1.2,1.7
			C77.8,38.7,77.2,39.8,76.7,40.8z"/>
		<path class="st1" d="M65.1,40.8L65.1,40.8c-0.1-0.8,0.1-1.6,0.6-2.1c0.9-0.9,3.4-1.5,4.7-1.5c1,0,3.5,0,4,1.8l1.6-3
			c0,0,0-0.1,0.1-0.1c0.5-0.8,0.9-1.4,1.3-2c-0.3-0.4-0.5-0.7-0.7-0.9c-18.7-0.5-26.5-0.3-27.5,0c-1.1,0.5-3.7,5-4.8,7.3
			c2.9,0.2,10.3,0.4,18,0.5C63.3,40.8,64.2,40.8,65.1,40.8z"/>
		<path class="st1" d="M125.6,39.3c0.3-1,0.8-1.6,1.5-1.8c1.6-0.4,5,0.3,6.2,1.9c0.3,0.5,0.5,0.9,0.6,1.4c1.1,0,2.4,0,3.7,0
			c7.7-0.1,15.1-0.3,18-0.5c-1.1-2.3-3.8-6.8-4.8-7.3c-1-0.3-8.8-0.6-27.5,0c-0.2,0.2-0.5,0.6-0.8,1c0.6,1,1.2,2,1.4,2.3L125.6,39.3
			z"/>
		<path class="st1" d="M37.7,70.4l0,1.1c0,0.5,0.2,0.9,0.5,1.3c0.3,0.3,0.8,0.5,1.3,0.5h2.4c1,0,1.8-0.8,1.8-1.8v-0.4
			c-1.6,0-3.8-0.1-5.6-0.7L37.7,70.4z"/>
		<path class="st1" d="M40,42.1c0-0.3,0-0.8,0-1.1c-0.5,0.2-1.4,0.5-1.8,0.7c-0.3,0.2-0.5,0.6-0.5,0.9c0.4,0.2,1.4,0.3,2.3,0.3
			L40,42.1z"/>
		<path d="M165.3,57.1c0-0.5-0.2-3.7-0.8-5.7c-0.4-1.2-1.5-3.5-2.4-5.4l0-0.2l-0.1-0.1c-0.1-0.3-0.3-0.5-0.4-0.8
			c1.4-0.2,2.2-0.6,2.6-1.1c0.8-1.2,0.1-3.2-1.1-4c-0.9-0.6-2.5-1-2.7-1.1c-0.6-0.1-1.4-0.2-2,0.2c0,0-0.1,0.1-0.1,0.1
			c-1.2-2.1-3-5.1-4.3-7.4c-0.2-0.7-1.2-2.4-4.9-2.5c-1.1,0-2.6-0.1-4.2-0.1c-4-0.2-8.5-0.3-10.5-0.2c-0.9,0.1-2.6,0.1-4.3,0.2
			c-7.3,0.2-7.7,0.3-8.2,0.7c-0.1,0.1-0.7,0.5-1.4,1.3c-0.3-0.4-0.6-0.6-0.8-0.8c-0.4-0.3-0.9-0.5-1.4-0.7c0-0.1,0-0.1,0-0.2
			c0-1.2-0.9-2.2-2-2.2c-1,0-1.9,0.8-2,1.9l-9.9-0.5c0,0-0.1,0-0.1,0l-16.1,0.3c-0.8,0-2.2,0-3.5,0c-0.2-1-1-1.8-2-1.8
			c-1.1,0-2,1-2,2.2c0,0,0,0.1,0,0.1c-0.2,0.2-0.6,0.5-1.1,1.1c-0.1,0.1-0.2,0.3-0.4,0.5c-0.7-0.8-1.2-1.2-1.4-1.3
			c-0.5-0.4-0.9-0.5-8.2-0.7c-1.7-0.1-3.4-0.1-4.3-0.2c-2-0.1-6.5,0-10.5,0.2c-1.6,0.1-3.1,0.1-4.2,0.1c-3.7,0.1-4.6,1.8-4.9,2.5
			c-1.3,2.2-3.1,5.3-4.3,7.4c0,0-0.1-0.1-0.1-0.1c-0.6-0.4-1.4-0.3-2-0.2c-0.2,0-1.8,0.5-2.7,1.1c-1.2,0.8-1.9,2.8-1.1,4
			c0.4,0.6,1.3,0.9,2.6,1.1c-0.1,0.2-0.3,0.5-0.4,0.8l-0.1,0.1l0,0.2c-0.9,1.8-2,4.2-2.4,5.4c-0.6,2-0.8,5.2-0.8,5.7
			c-0.4,2.7-0.3,6,0.2,9.8c0,0.1,0,0.2,0,0.3c0,0.6,0.2,1.2,0.6,1.7l-0.1,2.5c0,1.1,0.4,2.1,1.1,2.9c0.8,0.8,1.8,1.2,2.9,1.2h2.4
			c2.2,0,4-1.8,4-4V71l19.2,0.2c-0.1-0.6-0.1-1.3-0.2-2c0,0,0-0.1,0-0.1l0-0.1c0,0.1,0,0.2,0.1,0.4c0.1,0.5,0.2,1.1,0.3,1.8
			c0.1,0.7,0.2,1.4,0.2,2.1c0,1,0.4,1.9,1,2.4l0.3,3.4c0,3.4,2.5,5.8,6,5.8c3.4,0,6.2-2.8,6.2-6.2l-0.1-1.7h20l14.6,0.3c0,0,0,0,0,0
			c0,0,0,0,0.1,0c2.5-0.1,6.6-0.2,8.5-0.3l0.2,2c0,3.4,2.5,5.8,6,5.8c3.4,0,6.2-2.8,6.2-6.2v-3.9c0.2-0.7,0.4-1.9,0.7-3.7l19.2-0.2
			v0.4c0,2.2,1.8,4,4,4h2.4c1.1,0,2.1-0.4,2.9-1.2c0.8-0.8,1.2-1.8,1.1-2.9l-0.1-2.5c0.4-0.5,0.6-1.1,0.6-1.7c0-0.1,0-0.2,0-0.3
			C165.7,63.2,165.7,59.8,165.3,57.1z M160,42.1c0-0.3,0-0.8,0-1.1c0.5,0.2,1.4,0.5,1.8,0.7c0.3,0.2,0.5,0.6,0.5,0.9
			c-0.4,0.2-1.4,0.3-2.3,0.3L160,42.1z M160,47.1l0.2,1.3c0,2.4-2.3,3.4-5.4,4.5c-1,0.4-1.9,0.7-2.6,1.1c-1,0.6-7,1.7-14.8,2.7
			c-0.4,0-0.7,0-1.1,0c-0.3,0-0.6-0.1-0.9-0.1c0-0.3,0-0.5,0-0.8L137,56l0.2,0c0,0,3.2-0.6,6.3-1.2c1.8-0.4,3.3-0.7,4.4-0.9
			c0.6-0.1,1.1-0.2,1.5-0.3c0.5-0.1,1.2-0.3,1.3-0.9c0.2-0.4,1-1.4,1.6-2.3C155,49.7,158.4,48,160,47.1z M122.4,69
			c-1.7-1.4-3.1-2.7-3.3-3.2c-0.2-0.3,0.1-1.4,0.6-2.4c3.3-1.2,10.7-1.7,12.2-1.8c0.1,0.1,0.1,0.4,0.1,0.5V69v0.1
			c0,1.3-0.3,1.6-0.3,1.6c0,0,0,0-0.1,0c-0.3,0-5.1,0.2-6.8,0.3C123.9,70.3,123.1,69.7,122.4,69z M81,65.9c-0.2,0.4-1.7,1.8-3.4,3.2
			c-0.7,0.6-1.5,1.3-2.3,1.9c-1.7-0.1-6.5-0.3-6.8-0.3c0,0-0.1,0-0.1,0c0,0-0.3-0.3-0.3-1.6V69v-6.8c0-0.1,0.1-0.4,0.1-0.5
			c1.4,0.1,8.9,0.7,12.2,1.8C80.9,64.5,81.2,65.6,81,65.9z M67.3,40.2c0.5-0.3,2-0.8,3-0.8c0.5,0,1.2,0,1.6,0.1
			c0.3,0.1,0.3,0.1,0.3,0.3c0,0.4,0,0.8-0.1,1.1c0,0.3-0.1,0.5-0.1,0.7c-0.1,0.4,0,0.8,0.2,1.1c-0.4,0-0.8,0-1.3-0.1
			c-1.2,0-2.5,0-3,0c-0.1-0.1-0.4-0.4-0.5-0.7c-0.1-0.4-0.2-0.7-0.2-1C67.3,40.6,67.3,40.3,67.3,40.2z M73.3,46.6
			c0.5-0.2,0.8-0.6,0.9-1c0.1-0.6,0.2-1,0.3-1.2l0,0l0.6,0c0.1,0,4.4-0.2,9.6-0.5c0.8,0,1.5-0.1,2.3-0.1c6.3-0.3,13.4-0.5,16.3-0.3
			c2.4,0.1,6.5,0.3,10.4,0.5c0.8,0,1.6,0.1,2.3,0.1c4.7,0.2,8.7,0.3,8.8,0.3l0.5,0l0.3-0.3c0,0.2,0,0.3,0,0.5
			c0.1,0.5,0.4,1.8,2.2,2.4c0.1,0,0.2,0.1,0.3,0.1c-1.9,0.1-5,0.2-8.7,0.3c-2.1,0-4.4,0-6.8,0.1c-4.6,0-9.4,0-13.3,0H88.1h-6.8H80
			L72.1,47C72.4,46.9,72.8,46.7,73.3,46.6z M127.2,42.8c0.3-0.3,0.4-0.7,0.4-1.1c0-0.4,0-0.7,0-0.9c0-0.6,0.1-1,0.2-1.2
			c0.9-0.1,3.2,0.4,3.8,1.1c0,0,0,0.1,0.1,0.1c0.4,0.7,0,1.5-0.3,1.7c-0.1,0.1-0.2,0.2-0.3,0.3c0,0-0.1,0-0.1,0
			C130,42.8,128.1,42.8,127.2,42.8C127.2,42.9,127.2,42.9,127.2,42.8z M135.1,52.4c-0.1-0.4-0.2-0.8-0.5-1.2
			c5.2-0.1,11.9-0.5,14.8-0.6c-0.2,0.3-0.4,0.6-0.5,0.8c-1.6,0.4-7.8,1.6-11.9,2.4l-1.8-0.4C135.2,53,135.2,52.6,135.1,52.4z
			 M129.8,51.8c-0.1,0.1-0.2,0.2-0.3,0.3c-0.7,0.5-2.3,1-3.7,1.3c-0.2,0-0.4,0.1-0.6,0.1c-1.2,0.2-2.4,0.3-3.3,0.4
			c-0.5,0.1-0.9,0.1-1,0.1c-0.2,0-1,0.1-2.6,0.3l0.5-1.7l0.9-2.9l0-0.1c5.8-0.1,8.6-0.2,10-0.4c0.2,0.7,0.3,1.5,0.2,2.1
			C129.9,51.4,129.9,51.6,129.8,51.8z M109.5,55.4c-0.2,0-0.7,0.1-3,0.3c-1.8,0.2-4.6,0.5-5,0.6c-0.4,0-6.2-0.4-9.7-0.6
			c-0.6-0.1-1.7-0.3-2.9-0.5c-0.7-0.1-1.5-0.2-2.3-0.4c-0.8-0.1-1.6-0.3-2.3-0.4l-0.2-0.5L83.3,52l-0.8-2.4h2.7h3.1h11
			c0.1,0,6.3,0.1,13.1,0c0.7,0,1.4,0,2.1,0c0.4,0,0.7,0,1.1,0c0.6,0,1.2,0,1.7,0l-0.6,2l-0.7,2.1l-0.3,0.8c-0.5,0.1-1,0.1-1.6,0.2
			c-0.2,0-0.5,0.1-0.7,0.1c-0.5,0.1-1,0.1-1.5,0.2C110.7,55.2,109.7,55.4,109.5,55.4z M109.5,55.4C109.5,55.4,109.5,55.4,109.5,55.4
			C109.5,55.4,109.5,55.4,109.5,55.4C109.5,55.4,109.5,55.4,109.5,55.4z M75.7,53.4c-0.1,0-0.2,0-0.3-0.1c-1.5-0.3-3.1-0.8-4.2-1.2
			c-0.6-0.2-1-0.4-1.2-0.5c0-0.1,0-0.2-0.1-0.3c0-0.5,0.1-1.3,0.3-2.1l9.7,0.4h0.2l0.1,0.3l1.1,3.1l0.5,1.3c0,0,0,0,0,0
			c-0.3,0-1.5-0.2-2.9-0.4C77.8,53.7,76.7,53.5,75.7,53.4z M64.7,52.6l-0.1,0.8l-1.6,0.2c-4.1-0.8-10.3-2-11.9-2.4
			c-0.1-0.2-0.3-0.5-0.5-0.8c2.9,0.2,9.4,0.5,14.6,0.6C64.9,51.6,64.7,52.1,64.7,52.6z M68.2,59.4l-0.1,0l-0.1,0
			c-0.6,0.1-1,0.4-1.4,0.8c0-0.5-0.1-1.1-0.1-1.7c0-0.4,0-0.7-0.1-1.2c0-0.4,0-0.7,0-1.1c0-0.3,0-0.6,0.1-0.9c0-0.1,0-0.2,0-0.2
			l0.3-2.1l0-0.1c0.1-0.5,0.3-0.9,0.6-1.2l0.3-0.3c0,0.5,0.2,1,0.4,1.4c0.1,0.1,0.2,0.2,0.3,0.3c0.5,0.5,1.5,0.9,2.6,1.3
			c0.9,0.3,1.9,0.6,2.8,0.8c0.4,0.1,0.8,0.2,1.1,0.3l0.1,0c0.5,0.1,2.4,0.4,4,0.6c1.2,0.2,2.3,0.3,2.7,0.3c0.4,0,2.5,0.3,5,0.7
			c0.7,0.1,1.5,0.2,2.3,0.4c0.8,0.1,1.6,0.3,2.4,0.4l0.1,0c1,0.1,9.3,0.6,9.9,0.6c0.4,0,1.8-0.2,5.2-0.6c1.2-0.1,2.7-0.3,2.9-0.3
			c0.2,0,0.5-0.1,2.3-0.3c0.5-0.1,1.2-0.2,2-0.3c0.1,0,0.1,0,0.2,0c2.6-0.4,6.4-0.9,6.8-0.9c0.1,0,0.4,0,0.8-0.1
			c1.3-0.1,3.6-0.4,4.4-0.5h0c0.2,0,0.6-0.1,1.2-0.2c0.7-0.2,1.7-0.5,2.5-0.9c0.8-0.4,1.5-0.9,1.9-1.5c0.1-0.1,0.1-0.2,0.2-0.3
			c0.2-0.4,0.3-0.8,0.3-1.2c0.4,0.6,0.7,1.1,0.8,1.4c0,0,0,0,0,0c0.1,0.4,0.1,1.2,0.2,2.3c0,0.3,0,0.7,0,1c0,0.7,0,1.5,0,2.2
			c0,0.5,0,1.1,0,1.6c-0.3-0.3-0.7-0.5-1.1-0.5l-0.1,0l-0.1,0c-0.4,0-9.8,0.6-13.5,2.2l-0.4,0.2l-0.2,0.4c-0.3,0.5-1,2-1,3.4l-2.4,0
			l-2.2,0l-23.5,0.1l-2.2,0l-3.1,0c0-1.4-0.7-3-1-3.6l-0.2-0.4l-0.4-0.2C78,60.1,68.6,59.5,68.2,59.4z M158.1,42.9L158.1,42.9
			L158.1,42.9l0.7,1.6c0.1,0.2,0.2,0.4,0.3,0.6c-2.1,1.2-6.3,3.2-8.3,3.2h-0.1c-4.6,0.3-12.4,0.7-17.6,0.7c-0.6-0.7-1.1-1.4-1.5-1.8
			c-0.2-0.3-0.4-0.5-0.6-0.7l-0.2-0.6l-0.2,0.2c-0.5-0.5-1.2-0.8-1.6-1c0.6,0,1.2,0,2,0c1,0,1.2-0.2,2-0.9c0.3-0.3,0.5-0.7,0.7-1.1
			c1.4,0,3,0,4.6-0.1c4.4-0.1,9.1-0.2,12.9-0.3c5.3-0.2,6.1-0.3,6.4-0.4C158,42.8,158.1,42.8,158.1,42.9z M123.3,32.9
			c18.7-0.5,26.5-0.3,27.5,0c1.1,0.5,3.7,5,4.8,7.3c-2.9,0.2-10.3,0.4-18,0.5c-1.3,0-2.5,0-3.7,0c-0.1-0.5-0.3-1-0.6-1.4
			c-1.2-1.6-4.6-2.3-6.2-1.9c-0.8,0.2-1.3,0.8-1.5,1.8l-1.7-3.1c-0.2-0.3-0.7-1.3-1.4-2.3C122.9,33.5,123.1,33.2,123.3,32.9z
			 M81.8,32.9l0.5-0.7l4.3-0.2l12.2-0.3l13.7,0.3c2,0.1,4.3,0.3,5,0.4c0.2,0.2,0.6,0.7,1,1.3c0.6,0.8,1.4,1.9,2.2,2.9
			c0.3,0.5,0.7,0.9,1,1.4l1.4,2.8l0.7,1.3c-1.8-0.1-5.4-0.2-9.2-0.4c-4.2-0.2-8.5-0.4-11.1-0.5c-0.7,0-1.6,0-2.6,0
			c-3.8,0-9.5,0.2-14.6,0.4c-4.3,0.2-8.1,0.4-10,0.5c0.1-0.4,0.3-0.8,0.6-1.3c0.5-0.9,1.1-2,1.7-3.1l1.2-1.7L81.8,32.9z M49.1,33
			c1-0.3,8.8-0.6,27.5,0c0.2,0.2,0.4,0.5,0.7,0.9c-0.4,0.6-0.8,1.3-1.3,2c0,0,0,0.1-0.1,0.1l-1.6,3c-0.5-1.8-3-1.8-4-1.8
			c-1.3,0-3.7,0.6-4.7,1.5c-0.5,0.5-0.6,1.3-0.6,2.1v0c-0.9,0-1.8,0-2.8,0c-7.7-0.1-15.1-0.3-18-0.5C45.4,38,48,33.5,49.1,33z
			 M41.1,44.5l0.8-1.6h-0.1l0,0c0,0,0.1-0.1,0.4-0.6c0.3,0.1,1.1,0.2,6.4,0.4c3.8,0.1,8.6,0.2,12.9,0.3c1.4,0,2.7,0,4,0
			c0.4,0.7,1.1,1.7,2.3,1.7c1.7,0,2.9,0,3.6,0.1c-1.7,0.7-1.9,0.9-2,1c-0.2,0.2-0.5,0.6-0.8,1l-0.2,0l-0.1,0.5L66.9,49l-0.4,0.4
			c0.1-0.1,0.2-0.3,0.3-0.4c-5.2-0.1-13-0.5-17.6-0.7h-0.1c-2,0-6.2-2.1-8.3-3.2C41,44.8,41.1,44.6,41.1,44.5z M47.6,50.3
			c0.7,0.9,1.4,2,1.6,2.3c0.2,0.6,0.8,0.8,1.3,0.9c0.3,0.1,0.8,0.2,1.5,0.3c1.1,0.2,2.5,0.5,4.4,0.9c3.1,0.6,6.3,1.2,6.3,1.2l0.2,0
			l1.3-0.2c0,0,0,0.1,0,0.1c0,0.2,0,0.4,0,0.6c-0.2,0-0.4,0.1-0.6,0.1c-0.4,0.1-0.7,0.1-1.1,0c-7.8-1-13.8-2-14.8-2.7
			c-0.6-0.4-1.5-0.7-2.6-1.1c-3.1-1.1-5.4-2.1-5.4-4.5l0.2-1.3C41.6,48,45,49.7,47.6,50.3z M37.7,42.5c0-0.2,0.2-0.7,0.5-0.9
			c0.4-0.3,1.3-0.6,1.8-0.7c0,0.4,0,0.8,0,1.1l0,0.8C39.1,42.8,38.1,42.7,37.7,42.5z M43.7,71.5c0,1-0.8,1.8-1.8,1.8h-2.4
			c-0.5,0-0.9-0.2-1.3-0.5c-0.3-0.3-0.5-0.8-0.5-1.3l0-1.1l0.3,0c1.8,0.5,4,0.7,5.6,0.7L43.7,71.5L43.7,71.5z M45.9,68.8L45.9,68.8
			l-7.4-0.6c-0.5-0.2-0.9-0.4-1.1-0.6c-0.2-0.2-0.2-0.3-0.2-0.4c0-0.1,0-0.2-0.1-0.5c-0.1-0.9-0.2-1.7-0.3-2.5
			c0.2,0.2,0.5,0.3,0.7,0.4c0.7,0.3,2.9,1.2,4.2,1.2c0.2,0,0.4,0,0.5-0.1c0.6-0.2,2.9-2,2.9-3.5c0,0,0-0.1,0-0.1
			c0.1-0.8,0.4-2.8-1.1-3.7c-1.1-0.6-5-1.7-6.4-1c-0.3,0.2-0.6,0.5-0.8,0.9c0-0.3,0.1-0.6,0.1-0.8l0-0.1c0,0,0.1-3.3,0.7-5.2
			c0.1-0.3,0.3-0.8,0.5-1.4c1.2,2.4,4.2,3.5,6.3,4.2c0.9,0.3,1.7,0.6,2.1,0.9c1.8,1.2,10.6,2.4,15.7,3c0.2,0,0.5,0,0.7,0
			c0.3,0,0.7,0,1-0.1c0.1,0,0.2,0,0.3,0c0,0,0,0.1,0,0.1c0.3,5.8,0.5,9.4,0.5,9.7c0,0.1,0,0.3,0.1,0.5v0L45.9,68.8z M38.7,59.3
			c0.8-0.1,3.3,0.5,4.2,0.9c0,0,0.3,0.2,0.1,1.5c0,0.1,0,0.3,0,0.4c-0.1,0.4-0.9,1.2-1.4,1.5c-0.7-0.1-2.7-0.7-3.3-1.1
			C38.1,61.7,38.4,59.9,38.7,59.3z M72.7,82.7c-2.2,0-3.7-1.5-3.7-3.7l-0.2-1.9l7.8,0.2l0,1.4C76.6,80.9,74.8,82.7,72.7,82.7z
			 M132,78.7c0,2.2-1.8,4-4,4c-2.2,0-3.7-1.5-3.7-3.7l-0.2-2l7.9-0.3V78.7z M132.1,74.4c-1.8,0.2-8.2,0.5-9.4,0.5
			c-1.1,0-8.4,0.3-9.3,0.3l-14.6-0.3H74c-0.3,0-2.2-0.2-3.3-0.4c-1.6-0.2-1.9-0.2-2.1-0.2c-0.8,0-1-0.4-1-1c0-0.2,0-0.4,0-0.6
			c0.4,0.2,0.7,0.2,1,0.2c0.3,0,4.4,0.2,7.1,0.3l0.4,0l0.3-0.3c0.5-0.4,1.3-1,2.1-1.7c0.9-0.7,1.9-1.6,2.7-2.3c0.4-0.3,0.7-0.7,1-1
			l4,0l2.2,0l23.9-0.1l2.2,0l3.1,0c0.3,0.3,0.7,0.7,1.1,1.1c0.8,0.8,1.8,1.6,2.7,2.3c0.8,0.7,1.6,1.3,2.1,1.7l0.3,0.3l0.4,0
			c2.7-0.1,6.9-0.3,7.1-0.3c0.2,0,0.6,0,1-0.2C132.3,73.4,132.2,74,132.1,74.4z M161.8,72.7c-0.3,0.3-0.8,0.5-1.3,0.5h-2.4
			c-1,0-1.8-0.8-1.8-1.8v-0.4c1.6,0,3.8-0.1,5.6-0.7l0.3,0l0,1.1C162.3,71.9,162.1,72.4,161.8,72.7z M156,58.3
			c-1.6,0.9-1.3,3-1.1,3.7c0,0.1,0,0.1,0,0.1c0,1.6,2.3,3.3,2.9,3.5c0.1,0.1,0.3,0.1,0.5,0.1c1.3,0,3.5-0.9,4.2-1.2
			c0.2-0.1,0.5-0.3,0.7-0.4c-0.1,0.8-0.2,1.6-0.3,2.5c0,0.3-0.1,0.4-0.1,0.5s0,0.3-0.2,0.4c-0.2,0.2-0.6,0.4-1.1,0.6l-7.4,0.6v0
			L135.1,69l0.3-8.2v0c0-0.2,0-1,0-2c0.2,0,0.4,0.1,0.5,0.1c0.3,0.1,0.7,0.1,1,0.1c0.2,0,0.5,0,0.7,0c5.1-0.6,13.9-1.8,15.7-3
			c0.4-0.3,1.2-0.6,2.1-0.9c2.1-0.8,5.1-1.8,6.3-4.2c0.2,0.6,0.4,1.1,0.5,1.4c0.6,1.8,0.7,5.1,0.7,5.2l0,0.1c0,0.3,0.1,0.5,0.1,0.8
			c-0.2-0.4-0.5-0.7-0.8-0.9C161,56.6,157.1,57.7,156,58.3z M161.8,62.5c-0.6,0.4-2.6,1-3.3,1.1c-0.4-0.3-1.3-1.1-1.4-1.5
			c0-0.1,0-0.2,0-0.4c-0.2-1.3,0-1.5,0.1-1.5c0.8-0.5,3.4-1,4.2-0.9C161.6,59.9,161.8,61.7,161.8,62.5z"/>
		<path class="st0" d="M100.7,50.2c-1.4,0-2.5,1.1-2.5,2.5c0,1.4,1.1,2.5,2.5,2.5c1.4,0,2.5-1.1,2.5-2.5
			C103.3,51.4,102.1,50.2,100.7,50.2z M100.7,55.1c-0.5,0-1.1-0.2-1.4-0.5l0,0c-0.5-0.4-0.8-1.1-0.8-1.8c0-0.6,0.2-1.1,0.6-1.5v0
			c0.4-0.5,1-0.7,1.7-0.7c1.3,0,2.3,1,2.3,2.3C103,54,102,55.1,100.7,55.1z"/>
		<path class="st0" d="M138,52.4c0-0.5-0.4-1-1-1c-0.6,0-1,0.4-1,1c0,0.6,0.4,1,1,1C137.5,53.4,138,53,138,52.4z M137,53.3
			c-0.2,0-0.4-0.1-0.6-0.2l0,0c-0.2-0.2-0.3-0.4-0.3-0.7c0-0.2,0.1-0.4,0.2-0.6l0,0c0.2-0.2,0.4-0.3,0.7-0.3c0.5,0,0.9,0.4,0.9,0.9
			C137.9,52.9,137.5,53.3,137,53.3z"/>
		<path class="st0" d="M63.5,53.3c0.5,0,1-0.4,1-1c0-0.5-0.4-1-1-1c-0.6,0-1,0.4-1,1C62.5,52.9,63,53.3,63.5,53.3z M62.8,51.7
			L62.8,51.7c0.2-0.2,0.4-0.3,0.7-0.3c0.5,0,0.9,0.4,0.9,0.9c0,0.5-0.4,0.9-0.9,0.9c-0.2,0-0.4-0.1-0.6-0.2l0,0
			c-0.2-0.2-0.3-0.4-0.3-0.7C62.6,52.1,62.7,51.9,62.8,51.7z"/>
	</g>
</g>
</svg>
