<?xml version="1.0" encoding="utf-8"?>
<!-- Generator: Adobe Illustrator 22.0.1, SVG Export Plug-In . SVG Version: 6.00 Build 0)  -->
<svg version="1.1" id="Layer_1" xmlns="http://www.w3.org/2000/svg" xmlns:xlink="http://www.w3.org/1999/xlink" x="0px" y="0px"
	 viewBox="0 0 56.7 56.7" style="enable-background:new 0 0 56.7 56.7;" xml:space="preserve">
<title>nav_as_servicemaintenance</title>
<g>
	<path d="M41.4,12.1c0,0.4,0,0.7,0,1.1c0,13.8,0,27.5,0,41.3c0,2-0.1,2.1-2.1,2.1c-11.4,0-22.9,0-34.3,0c-1.5,0-1.7-0.2-1.7-1.7
		c0-15.8,0-31.6,0-47.4c0-3.7,2.1-6.4,5.5-7.2c0.6-0.1,1.2-0.2,1.7-0.2c12.1,0,24.1,0,36.2,0c3.3,0,5.9,1.9,6.4,5.1
		c0.3,2,0.2,4.1,0.1,6.1c0,0.7-0.6,0.8-1.2,0.8c-3.2,0-6.4,0-9.6,0C42.2,12.1,41.8,12.1,41.4,12.1z M39.4,54.6c0-0.4,0-0.6,0-0.9
		c0-14.9,0-29.9,0-44.8c0-2.4,0.1-4.7,2-6.6c-0.4,0-0.6-0.1-0.8-0.1c-10.1,0-20.2,0-30.3,0c-3,0-5,2.1-5,5.1c0,15.5,0,30.9,0,46.4
		c0,0.3,0,0.6,0,0.9C16.7,54.6,28,54.6,39.4,54.6z M51.3,10.1c0-1.6,0.2-3.1,0-4.6c-0.4-2.2-2.2-3.4-4.7-3.4c-2.5,0-4.5,1.6-4.9,3.8
		c-0.2,1.3-0.2,2.7-0.2,4.1C44.8,10.1,48,10.1,51.3,10.1z"/>
	<path d="M16.6,41.9c-2.4,0-4.8,0-7.1,0c-0.9,0-1.3-0.3-1.3-1c0-0.6,0.5-1,1.3-1c4.8,0,9.6,0,14.3,0c0.8,0,1.4,0.4,1.3,1
		c-0.1,0.8-0.6,1-1.3,1C21.4,41.9,19,41.9,16.6,41.9z"/>
	<path d="M16,16.4c2.2,0,4.4,0,6.6,0c0.9,0,1.4,0.4,1.3,1c-0.1,0.8-0.6,1-1.3,1c-4.4,0-8.8,0-13.2,0c-0.4,0-0.9-0.2-1.1-0.5
		c-0.2-0.2-0.1-0.8,0-1c0.2-0.3,0.7-0.5,1.1-0.5C11.5,16.4,13.8,16.4,16,16.4z"/>
	<path d="M15,8.6c1.9,0,3.7,0,5.6,0c0.7,0,1.2,0.2,1.3,1c0,0.6-0.4,1-1.3,1c-3.7,0-7.4,0-11.1,0c-0.9,0-1.3-0.4-1.3-1
		c0-0.6,0.4-1,1.4-1C11.3,8.6,13.2,8.6,15,8.6z"/>
	<path d="M14.9,49.7c-1.8,0-3.6,0-5.4,0c-1,0-1.4-0.3-1.4-1c0-0.6,0.5-1,1.4-1c3.7,0,7.4,0,11,0c1,0,1.5,0.4,1.3,1.1
		c-0.1,0.7-0.6,0.8-1.2,0.8C18.7,49.7,16.8,49.7,14.9,49.7C14.9,49.7,14.9,49.7,14.9,49.7z"/>
	<path d="M15,26.2c-1.9,0-3.7,0-5.6,0c-0.9,0-1.3-0.4-1.3-1c0-0.6,0.5-1,1.4-1c3.7,0,7.4,0,11,0c0.9,0,1.3,0.3,1.4,1
		c0,0.7-0.4,1-1.4,1C18.6,26.2,16.8,26.2,15,26.2z"/>
	<path d="M12.2,34.1c-1,0-2,0-3,0c-0.6,0-1.1-0.3-1.1-0.9c0-0.7,0.4-1,1.1-1c2,0,4,0,6.1,0c0.7,0,1.2,0.3,1.1,1c0,0.6-0.5,1-1.1,1
		C14.3,34.1,13.3,34.1,12.2,34.1C12.2,34.1,12.2,34.1,12.2,34.1z"/>
	<path d="M34,36.7c-0.2,0.7,0,1.1,0.5,1.4c0.9,0.5,0.9,1.7,0,2.3c-0.2,0.2-0.4,0.5-0.6,0.6c-0.2,0.1-0.5,0.2-0.6,0.1
		c-0.6-0.4-1.1-1-1.7-1.6c0.2-0.2,0.4-0.3,0.6-0.5c0.3,0.2,0.5,0.4,0.8,0.6c0.2-0.7,0.3-1.2-0.5-1.6c-0.7-0.3-0.9-1.1-0.4-1.7
		c0.3-0.5,0.8-0.8,1.2-1.2c0.1-0.1,0.4-0.1,0.5,0c0.5,0.4,0.9,0.9,1.5,1.5c-0.2,0.2-0.4,0.3-0.6,0.5C34.4,37,34.2,36.9,34,36.7z"/>
	<path d="M31.5,11.8c0.2-0.2,0.4-0.4,0.6-0.5c0.3,0.2,0.5,0.4,0.8,0.6c0.1-0.7,0.2-1.2-0.5-1.6c-0.8-0.3-0.9-1.2-0.3-1.8
		c0.3-0.4,0.7-0.8,1.1-1.1c0.1-0.1,0.4-0.1,0.5,0c0.5,0.4,0.9,0.9,1.4,1.4C35,9,34.8,9.2,34.6,9.4c-0.2-0.2-0.4-0.3-0.7-0.5
		c0,0.4,0,0.7,0,1c0.1,0,0.1-0.1,0.2-0.1c0.3,0.5,0.8,0.9,1,1.5c0.1,0.3-0.2,0.8-0.4,1.2c-0.2,0.3-0.5,0.6-0.8,0.9
		c-0.1,0.1-0.5,0.2-0.6,0.1C32.7,12.9,32.1,12.4,31.5,11.8z"/>
	<path d="M35.2,45.9c-0.3,0.2-0.4,0.3-0.7,0.4c-0.1-0.1-0.3-0.2-0.5-0.3c-0.1,0-0.1,0.1-0.1,0.1c0,0.3,0,0.6,0.2,0.9
		c0.1,0.1,0.3,0.2,0.5,0.3c0.7,0.5,0.8,1.4,0.2,2c-0.3,0.4-0.7,0.7-1.1,1c-0.1,0.1-0.4,0.1-0.5,0c-0.6-0.5-1.1-1-1.7-1.6
		c0.2-0.2,0.4-0.3,0.6-0.5c0.3,0.2,0.5,0.4,0.8,0.6c0.1-0.7,0.4-1.2-0.4-1.5c-1-0.5-1-1.7,0-2.1c0.5-0.2,0.5-1.2,1.2-0.8
		c0.4,0.2,0.7,0.6,1.1,1C34.8,45.5,35,45.6,35.2,45.9z"/>
	<path d="M31.5,30.4c0.2-0.2,0.4-0.4,0.6-0.5c0.3,0.2,0.5,0.4,0.9,0.6c0.1-0.7,0.2-1.3-0.6-1.6c-0.9-0.4-0.8-1.5,0-2.1
		c0.2-0.2,0.4-0.5,0.7-0.6c0.2-0.1,0.6-0.2,0.7-0.1c0.5,0.4,0.9,0.9,1.4,1.5c-0.2,0.2-0.4,0.3-0.5,0.5c-0.3-0.2-0.4-0.4-0.7-0.6
		c-0.2,0.7-0.1,1.1,0.5,1.4c0.7,0.4,0.9,1.3,0.4,1.9c-0.3,0.4-0.7,0.8-1.1,1.1c-0.1,0.1-0.4,0.1-0.5,0
		C32.7,31.4,32.1,30.9,31.5,30.4z"/>
	<path d="M35.1,18.1c-0.2,0.2-0.4,0.3-0.6,0.5c-0.2-0.2-0.4-0.3-0.6-0.5c-0.1,0.6-0.1,1,0.5,1.3c1,0.5,0.9,1.8,0,2.4
		c-0.2,0.1-0.4,0.2-0.5,0.4c-0.3,0.5-0.5,0.5-0.9,0c-0.2-0.2-0.5-0.3-0.8-0.5c-0.2-0.2-0.4-0.4-0.8-0.7c0.2-0.2,0.4-0.4,0.6-0.6
		c0.3,0.3,0.6,0.4,0.9,0.7c0.1-0.7,0.3-1.2-0.5-1.6c-0.9-0.4-0.9-1.6,0-2.2c0.2-0.2,0.4-0.5,0.6-0.6c0.2-0.1,0.6-0.2,0.7-0.1
		C34.2,17.1,34.6,17.6,35.1,18.1z"/>
	<path d="M20.7,32.1c0.6,0,1.2,0,1.8,0c0.6,0,1.1,0.3,1.1,1c0,0.7-0.4,1-1.1,1c-1.3,0-2.5,0-3.8,0c-0.6,0-1.1-0.3-1.1-1
		c0-0.7,0.4-1,1.1-1C19.4,32.1,20,32.1,20.7,32.1z"/>
	<path d="M24.1,26.4c-1.1-0.2-1.5-0.5-1.5-1.2c0-0.7,0.5-1,1.4-0.9c0.4,0,0.9,0.1,1.2,0.4c0.2,0.2,0.3,0.8,0.1,1
		C25,26,24.5,26.2,24.1,26.4z"/>
</g>
</svg>
