<svg id="Layer_1" data-name="Layer 1" xmlns="http://www.w3.org/2000/svg" viewBox="0 0 276.09 87.19"><defs><style>.cls-1{fill:#fff;}.cls-2{fill:#00205c;}.cls-3{fill:#e1251b;}</style></defs><title>DRB2</title><rect class="cls-1" y="21.78" width="276.09" height="65.42"/><rect class="cls-2" x="6.36" y="28.16" width="263.38" height="48.64"/><path class="cls-1" d="M35.81,70.36V50.22h4.93c6.58,0,11.36,2.86,11.36,10.07S46.6,70.36,39.84,70.36Zm-5.35,4.79H41.73c7.27,0,16-4.72,16-14.86S50.31,45.45,42.37,45.45H30.46Z" transform="translate(-11.87 -7.81)"/><path class="cls-1" d="M67.84,58V50h4.67c2.76,0,6.12.43,6.12,4C78.63,57.79,75.06,58,72,58ZM62.47,75.16h5.37V62.58h3.94l7,12.58h6.5L77.25,62a7.68,7.68,0,0,0,7-8.06c0-6.68-5.48-8.53-11.3-8.53H62.47Z" transform="translate(-11.87 -7.81)"/><path class="cls-1" d="M94.34,50h4.48c4.05,0,5.88,1.28,5.88,3.82,0,2.23-1.83,3.74-5.42,3.74H94.34ZM89,75.15H99.87c5.74,0,11.44-2,11.44-8.48a7.11,7.11,0,0,0-6.54-7.18v-.1c3.15-.92,5.27-3.13,5.27-6.48,0-5.4-4.68-7.46-9.26-7.46H89ZM94.34,62h5.2c4.35,0,6.4,1.1,6.4,4.2,0,3.91-3.86,4.38-6.62,4.38h-5Z" transform="translate(-11.87 -7.81)"/><rect class="cls-1" x="102.46" y="54.89" width="10.59" height="4.27"/><polygon class="cls-1" points="117.44 37.64 122.8 37.64 122.8 49.45 136.99 49.45 136.99 37.64 142.36 37.64 142.36 67.35 136.99 67.35 136.99 54.23 122.8 54.23 122.8 67.35 117.44 67.35 117.44 37.64"/><rect class="cls-1" x="148.56" y="37.64" width="5.36" height="29.71"/><path class="cls-1" d="M192.78,52.43a8.4,8.4,0,0,0-6.38-2.94c-6.24,0-10.39,4.69-10.39,10.6,0,6.31,4.15,11,10.39,11a8.59,8.59,0,0,0,6.8-3.6l4.46,3.09c-2.75,3.7-6.87,5.29-11.33,5.29-9.29,0-16-6.21-16-15.46,0-9.51,6.66-15.71,16-15.71A13.19,13.19,0,0,1,197,49.41Z" transform="translate(-11.87 -7.81)"/><path class="cls-1" d="M204.88,60.09c0-5.91,4.14-10.6,10.37-10.6s10.45,4.69,10.45,10.6c0,6.31-4.16,11-10.45,11s-10.37-4.7-10.37-11m-5.68.33c0,9.25,6.71,15.46,16,15.46,9.49-.19,16.16-6.37,16.16-15.63,0-9.5-6.67-15.72-16.16-15.54-9.29,0-16,6.2-16,15.71" transform="translate(-11.87 -7.81)"/><polygon class="cls-1" points="224.32 37.64 232.53 37.64 240.62 58.45 248.76 37.64 256.89 37.64 256.89 67.35 251.77 67.35 251.77 42.66 251.67 42.66 242.51 67.35 238.72 67.35 229.53 42.66 229.46 42.66 229.46 67.35 224.32 67.35 224.32 37.64"/><rect class="cls-3" x="6.37" y="76.81" width="263.36" height="3.92"/><path class="cls-2" d="M284.08,33.1H15.23V91.48H284.59V33.1Zm-.49,57.39H16.26V34.11H283.59Z" transform="translate(-11.87 -7.81)"/><path d="M13.61,21.71v-.63a6.8,6.8,0,0,0,.92-.07.92.92,0,0,0,.34-.2,3,3,0,0,0,.44-.75c.12-.23.52-1.11,1.22-2.62l2.33-5.26c.26-.58.8-1.87,1.64-3.87h.59l4,9.37c.65,1.5,1.08,2.46,1.3,2.85a.84.84,0,0,0,.38.42,2.93,2.93,0,0,0,.94.13v.63c-1-.06-1.64-.09-2-.09l-3,.09v-.63A10.86,10.86,0,0,0,23.93,21a.6.6,0,0,0,.31-.13.35.35,0,0,0,.08-.22,1.62,1.62,0,0,0-.13-.53L23,17.26h-5.4l-1,2.4a2.79,2.79,0,0,0-.27.95.32.32,0,0,0,.08.21.61.61,0,0,0,.31.17,10.63,10.63,0,0,0,1.22.09v.63c-1.06-.06-1.84-.09-2.37-.09S14.32,21.65,13.61,21.71ZM18,16.47h4.7l-2.32-5.61Z" transform="translate(-11.87 -7.81)"/><path d="M32.25,9.05v-.6c.64,0,1.27,0,1.87,0s1.18,0,1.73,0c.55,1.25,1,2.34,1.51,3.27L40.89,19l3.19-6.67c.87-1.82,1.46-3.1,1.75-3.88.66,0,1.21,0,1.67,0s1.08,0,2,0v.6a7.61,7.61,0,0,0-1.36.1.62.62,0,0,0-.33.22,2.07,2.07,0,0,0-.14.9c0,.13,0,1,0,2.65v4.32c0,.84,0,1.66,0,2.46a3,3,0,0,0,.14,1.06.6.6,0,0,0,.34.25,7.45,7.45,0,0,0,1.35.1v.6c-1.27-.06-2.15-.09-2.67-.09s-1.33,0-2.76.09v-.6a7.71,7.71,0,0,0,1.36-.1.62.62,0,0,0,.32-.22,2.16,2.16,0,0,0,.14-.91c0-.13,0-1,0-2.64V10.39l-3.22,6.74c-.51,1.05-.9,1.89-1.19,2.53l-.93,2.22h-.36c-.09-.23-.16-.42-.23-.57L39.41,20,35,10.7v6.54c0,.84,0,1.66,0,2.46a2.86,2.86,0,0,0,.13,1.06.63.63,0,0,0,.35.25,7.4,7.4,0,0,0,1.34.1v.6l-2.24-.06-2.32.06v-.6a7.46,7.46,0,0,0,1.33-.1.66.66,0,0,0,.33-.22,2.35,2.35,0,0,0,.14-.91c0-.13,0-1,.05-2.64V12.92c0-.85,0-1.67,0-2.48a2.74,2.74,0,0,0-.14-1,.59.59,0,0,0-.34-.24A7.51,7.51,0,0,0,32.25,9.05Z" transform="translate(-11.87 -7.81)"/><path d="M58.21,20.26l-.3.67a10.63,10.63,0,0,1-.94.53,6,6,0,0,1-1,.33,4.54,4.54,0,0,1-1.18.13,4.67,4.67,0,0,1-2.23-.51A3.55,3.55,0,0,1,51,19.88a4.93,4.93,0,0,1-.55-2.39,6.18,6.18,0,0,1,.29-1.94,3.53,3.53,0,0,1,.67-1.28,5.7,5.7,0,0,1,.83-.68A6,6,0,0,1,53.37,13,4.17,4.17,0,0,1,55,12.67a3.74,3.74,0,0,1,1.89.48,2.76,2.76,0,0,1,1.23,1.3,4.26,4.26,0,0,1,.4,1.85,5.27,5.27,0,0,1,0,.63,8.62,8.62,0,0,1-1.2.17c-.67.06-1.34.08-2,.08h-3a4.74,4.74,0,0,0,.46,2.16,2.84,2.84,0,0,0,1.22,1.23,3.57,3.57,0,0,0,1.62.38,3.75,3.75,0,0,0,1.14-.17,7.64,7.64,0,0,0,1.39-.69Zm-6-3.82,1,.06,1.91.05c.83,0,1.37,0,1.63-.05,0-.15,0-.27,0-.34a3.2,3.2,0,0,0-.6-2.17,2,2,0,0,0-1.59-.69,2.14,2.14,0,0,0-1.7.75A3.65,3.65,0,0,0,52.23,16.44Z" transform="translate(-11.87 -7.81)"/><path d="M59.51,21.71v-.54h.89a.6.6,0,0,0,.3-.07.41.41,0,0,0,.17-.15,1.71,1.71,0,0,0,.13-.66c0-.08,0-1,0-2.68V16.49c0-.5,0-1,0-1.61a2.17,2.17,0,0,0-.09-.65.34.34,0,0,0-.21-.15A6.53,6.53,0,0,0,59.51,14v-.52a9.62,9.62,0,0,0,2.75-.69.75.75,0,0,1,.25-.09.12.12,0,0,1,.1,0s0,.07,0,.13a.76.76,0,0,1,0,.15c0,.3,0,.75-.06,1.33l1.22-1.11a2.63,2.63,0,0,1,.29-.24,2.88,2.88,0,0,1,.62-.22,3.25,3.25,0,0,1,.83-.1,2.92,2.92,0,0,1,1.59.44,2.81,2.81,0,0,1,1.07,1.29l1-.94a2.64,2.64,0,0,1,.47-.4,3,3,0,0,1,.69-.26,3.41,3.41,0,0,1,.89-.12,2.77,2.77,0,0,1,1.78.57A2.51,2.51,0,0,1,74,14.57a9,9,0,0,1,.14,2.07v1l0,1.3c0,.75,0,1.19,0,1.32a2.31,2.31,0,0,0,.11.68.79.79,0,0,0,.12.15.61.61,0,0,0,.23.09l1,0v.54c-.79-.05-1.32-.06-1.6-.06s-.83,0-1.65.06l.08-2.58,0-1v-.81a9.14,9.14,0,0,0-.16-2.14,1.63,1.63,0,0,0-.67-.93,2,2,0,0,0-1.18-.36,2.26,2.26,0,0,0-1.4.46,1.54,1.54,0,0,0-.61.81A7.11,7.11,0,0,0,68.36,17V18.9q0,1.13,0,1.32a1.79,1.79,0,0,0,.11.68.72.72,0,0,0,.11.15.5.5,0,0,0,.23.09l1,0v.54c-.91-.05-1.65-.06-2.2-.06s-1.27,0-2.45.06v-.54h.9a.68.68,0,0,0,.31-.07.33.33,0,0,0,.16-.15,1.57,1.57,0,0,0,.12-.66c0-.08,0-1,.06-2.68v-.73a5.7,5.7,0,0,0-.2-1.76,1.8,1.8,0,0,0-.64-.89,2,2,0,0,0-1.12-.33,2.23,2.23,0,0,0-1,.25,1.89,1.89,0,0,0-.77.58,1.56,1.56,0,0,0-.33.76,9.82,9.82,0,0,0-.1,1.55v.57c0,1.62.05,2.49.05,2.62a2,2,0,0,0,.12.68.48.48,0,0,0,.11.15.5.5,0,0,0,.23.09l1,0v.54c-.85-.05-1.59-.06-2.19-.06S60.59,21.66,59.51,21.71Z" transform="translate(-11.87 -7.81)"/><path d="M77.19,21.74c.08-.79.12-1.28.13-1.48,0-1.35.05-2.14.05-2.38V13.73c0-1,0-2.11,0-3.21a5.64,5.64,0,0,0-.11-1.25.22.22,0,0,0-.15-.13,5.45,5.45,0,0,0-1.29-.07V8.52a10.55,10.55,0,0,0,2.93-.65.45.45,0,0,1,.19-.06.18.18,0,0,1,.1,0A.21.21,0,0,1,79,8a.8.8,0,0,1,0,.19v.3c0,1.12,0,2.06,0,2.84l0,1.45v1.86l1.29-1.26a2.43,2.43,0,0,1,.83-.42,3.39,3.39,0,0,1,1.23-.21,3.43,3.43,0,0,1,1.82.48,3.17,3.17,0,0,1,1.22,1.36,4.41,4.41,0,0,1,.42,1.94,5,5,0,0,1-.24,1.56,5.13,5.13,0,0,1-.63,1.31,2.43,2.43,0,0,1-.47.6L83,21a5.57,5.57,0,0,1-1.3.78,3.37,3.37,0,0,1-1.2.18,3.55,3.55,0,0,1-1.15-.17,3.92,3.92,0,0,1-1.13-.58l-.76.7Zm1.74-6v3.51a2.3,2.3,0,0,0,0,.59,1.08,1.08,0,0,0,.31.34,3.08,3.08,0,0,0,.92.53,3,3,0,0,0,1.09.19,2.37,2.37,0,0,0,2.08-1.05,4.4,4.4,0,0,0,.73-2.57,4.34,4.34,0,0,0-.35-1.84,2.4,2.4,0,0,0-1-1.1A2.59,2.59,0,0,0,81.45,14a2.65,2.65,0,0,0-1.59.51A2.44,2.44,0,0,0,78.93,15.72Z" transform="translate(-11.87 -7.81)"/><path d="M94.8,20.26l-.3.67a10.63,10.63,0,0,1-.94.53,5.86,5.86,0,0,1-1,.33,4.67,4.67,0,0,1-1.19.13,4.72,4.72,0,0,1-2.23-.51,3.47,3.47,0,0,1-1.55-1.53A4.83,4.83,0,0,1,87,17.49a5.9,5.9,0,0,1,.3-1.94A3.69,3.69,0,0,1,88,14.27a5.36,5.36,0,0,1,.84-.68A5.69,5.69,0,0,1,90,13a4.19,4.19,0,0,1,1.6-.31,3.73,3.73,0,0,1,1.88.48,2.83,2.83,0,0,1,1.24,1.3,4.25,4.25,0,0,1,.39,1.85,5.06,5.06,0,0,1,0,.63,8.74,8.74,0,0,1-1.21.17c-.67.06-1.34.08-2,.08h-3a4.74,4.74,0,0,0,.46,2.16,2.9,2.9,0,0,0,1.22,1.23,3.57,3.57,0,0,0,1.62.38,3.71,3.71,0,0,0,1.14-.17,7.34,7.34,0,0,0,1.39-.69Zm-6-3.82,1,.06,1.91.05c.82,0,1.37,0,1.64-.05v-.34A3.31,3.31,0,0,0,92.77,14a2,2,0,0,0-1.6-.69,2.1,2.1,0,0,0-1.69.75A3.71,3.71,0,0,0,88.82,16.44Z" transform="translate(-11.87 -7.81)"/><path d="M96.15,21.71v-.54c.7,0,1.08,0,1.14,0a.45.45,0,0,0,.24-.08.52.52,0,0,0,.12-.17,1.8,1.8,0,0,0,.12-.68c0-1.66,0-2.52,0-2.6V16.49c0-.5,0-1,0-1.61a2.82,2.82,0,0,0-.08-.65.34.34,0,0,0-.22-.15A6.53,6.53,0,0,0,96.28,14v-.52A9.81,9.81,0,0,0,99,12.82a.83.83,0,0,1,.25-.09.12.12,0,0,1,.1,0,.2.2,0,0,1,0,.13.76.76,0,0,1,0,.15q0,.57-.06,1.77c.28-.33.54-.65.77-1a6,6,0,0,1,.52-.62,2.44,2.44,0,0,1,.64-.39,2.22,2.22,0,0,1,.76-.14,2,2,0,0,1,.78.17l.05.13c-.09.82-.15,1.55-.16,2.18h-.42a1.73,1.73,0,0,0-.49-.65,1.18,1.18,0,0,0-.72-.2,1.54,1.54,0,0,0-1.22.58,2.74,2.74,0,0,0-.51,1.78v1c0,.4,0,1.16.05,2.24a4.71,4.71,0,0,0,0,.74,1,1,0,0,0,.1.23.41.41,0,0,0,.21.11,8.39,8.39,0,0,0,1.51.17v.54c-1.1-.05-2-.06-2.8-.06S96.89,21.66,96.15,21.71Z" transform="translate(-11.87 -7.81)"/><path d="M108.66,17.42a4.56,4.56,0,0,1,4.74-4.75,4.23,4.23,0,0,1,4.43,4.42,5,5,0,0,1-.64,2.49,4.36,4.36,0,0,1-1.79,1.77,5.14,5.14,0,0,1-2.55.64,4.2,4.2,0,0,1-1.83-.36,3.56,3.56,0,0,1-1.21-.92,4.22,4.22,0,0,1-.72-1.13A5.62,5.62,0,0,1,108.66,17.42Zm1.77-.7a7.67,7.67,0,0,0,.38,2.33,3.36,3.36,0,0,0,1.11,1.73,2.57,2.57,0,0,0,1.57.55,2.3,2.3,0,0,0,1.81-.86,4.06,4.06,0,0,0,.72-2.64,6.85,6.85,0,0,0-.43-2.57,3.11,3.11,0,0,0-1.11-1.52A2.57,2.57,0,0,0,113,13.3a2.33,2.33,0,0,0-1.86.83A3.93,3.93,0,0,0,110.43,16.72Z" transform="translate(-11.87 -7.81)"/><path d="M119.17,14.41V14a9.11,9.11,0,0,0,1.29-.65v-.56a6.24,6.24,0,0,1,.15-1.71,3,3,0,0,1,.44-.89,11.42,11.42,0,0,1,1.32-1.47,4.27,4.27,0,0,1,.9-.75,2,2,0,0,1,.89-.19,2.5,2.5,0,0,1,.75.12l0,1.55-.21.09a1.8,1.8,0,0,0-.57-.36,1.92,1.92,0,0,0-.67-.11,1.47,1.47,0,0,0-.82.21,1.17,1.17,0,0,0-.46.58,5.56,5.56,0,0,0-.15,1.56v1.93h1a14.19,14.19,0,0,0,1.47-.07l.09.06-.18,1c-.54,0-.94,0-1.2,0s-.65,0-1.17,0v3.33q0,.62.06,2.25a5.2,5.2,0,0,0,0,.73.71.71,0,0,0,.1.23.46.46,0,0,0,.21.11,8.53,8.53,0,0,0,1.51.17v.54c-1.46-.05-2.34-.06-2.65-.06s-1.09,0-2.4.06v-.54h.89a.68.68,0,0,0,.31-.07.39.39,0,0,0,.16-.15,1.54,1.54,0,0,0,.13-.66c0-.08,0-1,0-2.68V14.35Z" transform="translate(-11.87 -7.81)"/></svg>