<?xml version="1.0" encoding="utf-8"?>
<!-- Generator: Adobe Illustrator 22.0.1, SVG Export Plug-In . SVG Version: 6.00 Build 0)  -->
<svg version="1.1" id="Layer_1" xmlns="http://www.w3.org/2000/svg" xmlns:xlink="http://www.w3.org/1999/xlink" x="0px" y="0px"
	 viewBox="0 0 56.7 56.7" style="enable-background:new 0 0 56.7 56.7;" xml:space="preserve">
<title>nav_as_servicemaintenance</title>
<g>
	<path d="M50,16.7c0-0.2-0.1-0.5-0.3-0.7C44.4,10.7,39.1,5.4,33.7,0.1c-0.2-0.2-0.5-0.3-0.8-0.3c-8.5,0-17.1,0-25.6,0
		c-0.2,0-0.3,0-0.6,0c0.1,1,0,1.9,0,2.9l0,38.3l0.1,0c0,5.2,0,10.4,0,15.6c14.4,0,28.8,0,43.2,0c0-0.1,0-0.2,0-0.3
		C50,43.2,50,30,50,16.7z M35.3,5.7c2.9,2.9,5.9,5.8,8.8,8.8c-2.9,0-5.9,0-8.8,0C35.3,11.5,35.3,8.6,35.3,5.7z M47.4,54.2
		c-12.7,0-25.4,0-38.1,0c0-0.3,0-0.5,0-0.8c0-3.7,0-7.3,0-11l0,0V9.7c0,0,0,0,0,0c0-2.5,0-4.9,0-7.4c7.8,0,15.5,0,23.2,0
		c0,5,0,9.9,0,14.9c5,0,9.9,0,14.9,0C47.4,29.6,47.4,41.9,47.4,54.2z"/>
	<path d="M28,6.9c-4.7,0-9.3,0-14,0c0,2.3,0,4.6,0,6.9c4.7,0,9.4,0,14,0C28,11.5,28,9.2,28,6.9z M25.6,11.5c-3.1,0-6.2,0-9.3,0
		c0-0.7,0-1.5,0-2.3c3.1,0,6.2,0,9.3,0C25.6,10,25.6,10.7,25.6,11.5z"/>
	<path d="M17.7,23.1H14v2.3H16c0,0,0.1,0,0.1,0c8.8,0,17.5,0,26.3,0c0.2,0,0.4,0,0.6,0c0-0.8,0-1.5,0-2.3
		C34.5,23.1,26.1,23.1,17.7,23.1L17.7,23.1z"/>
	<path d="M14,31.2v2.3h5.4c0,0,0.1,0,0.1,0c0.3,0,0.6,0,0.9,0h0.5v0c7.2,0,14.3,0,21.5,0c0.2,0,0.4,0,0.6,0c0-0.8,0-1.6,0-2.3
		c-7.4,0-14.7,0-22.1,0v0H14z"/>
	<path d="M23,39.3h-9v1.7h0v8h0v0.7h9.4c0,0,0,0,0,0c6.6,0,13.2,0,19.7,0c0-3.5,0-7,0-10.4C36.4,39.3,29.7,39.3,23,39.3L23,39.3z
		 M40.1,41.6c0.2,0,0.4,0,0.6,0c0,2,0,3.9,0,5.8c-5.8,0-11.5,0-17.3,0v0h-7.2v-5.8h6.4c0,0,0.1,0,0.1,0
		C28.6,41.6,34.4,41.6,40.1,41.6z"/>
</g>
</svg>
