<?xml version="1.0" encoding="utf-8"?>
<!-- Generator: Adobe Illustrator 22.0.1, SVG Export Plug-In . SVG Version: 6.00 Build 0)  -->
<svg version="1.1" id="Layer_1" xmlns="http://www.w3.org/2000/svg" xmlns:xlink="http://www.w3.org/1999/xlink" x="0px" y="0px"
	 viewBox="0 0 56.7 56.7" style="enable-background:new 0 0 56.7 56.7;" xml:space="preserve">
<title>nav_as_servicemaintenance</title>
<g>
	<path d="M47.3,0.8H9.4C8,0.8,6.8,2,6.8,3.5v49.7c0,1.5,1.2,2.7,2.7,2.7h37.8c1.5,0,2.7-1.2,2.7-2.7V3.5C49.9,2,48.7,0.8,47.3,0.8
		L47.3,0.8z M48.1,53.2c0,0.5-0.4,0.8-0.8,0.8H9.4c-0.5,0-0.8-0.4-0.8-0.8V3.5C8.6,3,9,2.6,9.4,2.6h37.8c0.5,0,0.8,0.4,0.8,0.8V53.2
		z M48.1,53.2"/>
	<path d="M11.4,51.3h10.1V41.2H11.4V51.3z M13.2,43h6.4v6.4h-6.4V43z M13.2,43"/>
	<path d="M23.3,51.3h10.1V41.2H23.3V51.3z M25.1,43h6.4v6.4h-6.4V43z M25.1,43"/>
	<path d="M35.2,51.3h10.1v-22H35.2V51.3z M37.1,31.1h6.4v18.4h-6.4V31.1z M37.1,31.1"/>
	<path d="M11.4,39.4h10.1V29.3H11.4V39.4z M13.2,31.1h6.4v6.4h-6.4V31.1z M13.2,31.1"/>
	<path d="M23.3,39.4h10.1V29.3H23.3V39.4z M25.1,31.1h6.4v6.4h-6.4V31.1z M25.1,31.1"/>
	<path d="M11.4,27.4h10.1V17.3H11.4V27.4z M13.2,19.2h6.4v6.4h-6.4V19.2z M13.2,19.2"/>
	<path d="M23.3,27.4h10.1V17.3H23.3V27.4z M25.1,19.2h6.4v6.4h-6.4V19.2z M25.1,19.2"/>
	<path d="M35.2,27.4h10.1V17.3H35.2V27.4z M37.1,19.2h6.4v6.4h-6.4V19.2z M37.1,19.2"/>
	<path d="M11.4,14.6h34V5.4h-34V14.6z M13.2,7.2h30.3v5.5H13.2V7.2z M13.2,7.2"/>
</g>
</svg>
