<?xml version="1.0" encoding="utf-8"?>
<!-- Generator: Adobe Illustrator 22.0.1, SVG Export Plug-In . SVG Version: 6.00 Build 0)  -->
<svg version="1.1" id="Layer_1" xmlns="http://www.w3.org/2000/svg" xmlns:xlink="http://www.w3.org/1999/xlink" x="0px" y="0px"
	 viewBox="0 0 56.7 56.7" style="enable-background:new 0 0 56.7 56.7;" xml:space="preserve">
<title>nav_as_servicemaintenance</title>
<g>
	<path d="M45.4,46.6c0-0.3,0-0.5,0-0.7c0-12.1,0-24.2,0-36.2c0-0.2,0-0.3,0-0.5c0-0.4-0.1-0.5-0.5-0.5c-1.6,0-3.2,0-4.8,0
		c0-0.8,0-1.5,0-2.3c0.4,0,0.7,0,1.1,0c1.4,0,2.7,0,4.1,0c1.6,0,2.5,0.8,2.5,2.5c0,7.6,0,15.2,0,22.8c0,7.3,0,14.7,0,22
		c0,0.3,0,0.5,0,0.8c-0.1,1.3-1,2.2-2.3,2.2c-3.2,0-6.3-0.1-9.5-0.1c-8.1,0-16.2,0-24.3,0c-1.7,0-2.5-0.8-2.5-2.5
		C9,39.2,9,24.2,9,9.3c0-0.2,0-0.4,0-0.6c0-1.4,0.9-2.3,2.3-2.3c1.3,0,2.6,0,3.8,0c0.5,0,1,0,1.5,0c0,0.8,0,1.5,0,2.3
		c-1.8,0-3.5,0-5.3,0c0,0.3,0,0.5,0,0.8c0,13.3,0,26.6,0,39.9c0,1.4,0,2.9,0,4.3c0,0.4,0.1,0.6,0.6,0.6c8.1,0,16.1,0,24.2,0
		c0.4,0,0.6-0.1,0.6-0.6c0-1.5,0-3,0-4.6c0-1.7,0.9-2.6,2.6-2.6c1.8,0,3.6,0,5.4,0C44.9,46.6,45.1,46.6,45.4,46.6z M38.6,54.1
		c2.2-1.9,4.4-3.7,6.6-5.6c-1.7,0-3.2,0-4.7,0c-1,0-1.9,0.8-1.9,1.8C38.5,51.5,38.6,52.8,38.6,54.1z"/>
	<path d="M18.6,6.2c1.8,0,3.5,0,5.2,0c-0.4-1.8-0.1-3.4,1.2-4.8c0.9-0.9,2.1-1.4,3.4-1.3c1.6,0,2.8,0.7,3.7,2c0.9,1.2,1,2.6,0.7,4.1
		c0.9,0,1.8,0,2.6,0c0.8,0,1.7,0,2.6,0c0,0.6,0,1.1,0,1.7c0,1.1,0,2.2,0,3.3c0,1.5-1.2,2.9-2.7,2.9c-1.7,0.1-3.3,0.1-5,0.1
		c-2.7,0-5.5,0-8.2,0c-1.8,0-3-0.9-3.4-2.5c0-0.1,0-0.1,0-0.2c0-0.2,0-0.5,0-0.7C18.6,9.3,18.6,7.8,18.6,6.2z M28.4,2
		c-1.6,0-2.8,1.2-2.8,2.8c0,1.5,1.3,2.8,2.8,2.8c1.5,0,2.7-1.2,2.8-2.8C31.1,3.3,29.9,2,28.4,2z"/>
	<path d="M15.2,32.9c8.4,0,16.7,0,25.1,0c0,1.9,0,3.7,0,5.7c-0.2,0-0.4,0-0.6,0c-8,0-15.9,0-23.9,0c-0.5,0-0.7-0.1-0.6-0.6
		c0-1.5,0-3,0-4.5C15.2,33.3,15.2,33.2,15.2,32.9z"/>
	<path d="M22.8,20.2c1.1,0,2.3,0,3.4,0c0.8,0,1,0.1,1.3,0.9c0.5,1.2,0.9,2.3,1.5,3.4c0.6,1.3,0.2,3.6-0.9,4.4
		c-0.2,0.1-0.3,0.5-0.3,0.7c-0.1,0.5-0.2,0.7-0.7,0.7c-0.6,0-0.7-0.1-0.7-0.6c0-0.6,0-0.6-0.6-0.6c-2,0-3.9,0-5.9,0
		c-0.4,0-0.5,0.1-0.5,0.5c0,0.7-0.4,0.9-1.1,0.7c-0.2,0-0.2-0.3-0.3-0.5c-0.1-0.3-0.2-0.6-0.4-0.8c-1.1-1.1-1.5-2.9-0.8-4.4
		c0.5-1.2,1-2.4,1.5-3.6c0.2-0.5,0.5-0.8,1.1-0.8C20.4,20.2,21.6,20.2,22.8,20.2C22.8,20.2,22.8,20.2,22.8,20.2z M18.2,23.3
		c3.1,0,6.1,0,9.2,0c-0.3-0.7-0.5-1.3-0.8-1.8c-0.2-0.4-0.6-0.5-1-0.5c-1.9,0-3.8,0-5.6,0c-0.4,0-0.8,0.1-1,0.5
		C18.7,22.1,18.5,22.7,18.2,23.3z M22.8,27.6c0.7,0,1.4,0,2.1,0c0.3,0,0.4-0.1,0.4-0.4c0-0.6-0.5-1.1-1.1-1.1c-0.8,0-1.7,0-2.5,0
		c-0.6,0-1.1,0.5-1.2,1.1c-0.1,0.3,0,0.5,0.4,0.5C21.4,27.6,22.1,27.6,22.8,27.6z M27,27.8c0.6,0,1.1-0.4,1.1-1.1
		c0-0.6-0.5-1.1-1.1-1.2c-0.6,0-1.1,0.5-1.1,1.1C25.9,27.4,26.3,27.8,27,27.8z M19.7,26.7c0-0.6-0.5-1.1-1.1-1.1
		c-0.6,0-1.1,0.5-1.1,1.1c0,0.6,0.5,1.1,1.1,1.1C19.3,27.8,19.7,27.4,19.7,26.7z"/>
	<path d="M15.2,44.9c0-1.2,0-2.5,0-3.7c8.4,0,16.7,0,25.1,0c0,1.2,0,2.5,0,3.7C32,44.9,23.6,44.9,15.2,44.9z"/>
	<g>
		<path d="M40.4,19.6c-0.1,2.3-0.7,4.9-2.4,7.2C37,28,35.9,29,34.5,29.7c-0.5,0.3-1.1,0.3-1.6,0c-3.1-1.5-5-3.9-5.7-7.3
			C27,21.3,27,20.1,27,18.9c0-0.8,0.7-1.5,1.5-1.6c1.6-0.1,3-0.6,4.3-1.4c0.6-0.4,1.3-0.4,1.9,0.1c0.9,0.6,1.9,1.1,2.9,1.2
			c0.4,0.1,0.7,0.1,1.1,0.1C39.8,17.3,40.5,18.1,40.4,19.6z M28.4,19.8C28.4,19.8,28.3,19.8,28.4,19.8c0,0.7,0.1,1.5,0.2,2.2
			c0.5,3,2.1,5.2,4.9,6.5c0.1,0.1,0.4,0.1,0.5,0c1.3-0.7,2.4-1.7,3.2-2.9c1.3-1.9,1.8-4,1.8-6.3c0-0.5-0.1-0.6-0.5-0.6
			c-1.6-0.1-3.1-0.6-4.4-1.5c-0.2-0.2-0.4-0.2-0.7,0c-1,0.7-2,1.1-3.2,1.4c-0.5,0.1-1,0.2-1.5,0.2c-0.2,0-0.3,0.1-0.3,0.3
			C28.4,19.3,28.4,19.5,28.4,19.8z"/>
		<path d="M32.4,25.3c-0.2-0.2-0.5-0.2-0.6-0.4c-0.4-0.7-0.8-1.4-1.2-2.1c0,0,0,0,0-0.1c0-0.2,0-0.3,0-0.5c0.2,0,0.3,0,0.5,0.1
			c0.4,0.3,0.8,0.6,1.2,0.9c0.1,0.1,0.2,0.1,0.4,0c1-0.8,2-1.6,3.1-2.3c0.2-0.1,0.4-0.3,0.6-0.4c0.1-0.1,0.3,0,0.5-0.1
			c0,0.2,0,0.3-0.1,0.4c-0.3,0.4-0.6,0.7-0.9,1.1c-0.9,1-1.8,1.9-2.7,2.9C32.9,25,32.7,25.1,32.4,25.3z"/>
	</g>
</g>
</svg>
