<?xml version="1.0" encoding="utf-8"?>
<!-- Generator: Adobe Illustrator 24.1.1, SVG Export Plug-In . SVG Version: 6.00 Build 0)  -->
<svg version="1.1" id="Layer_1" xmlns="http://www.w3.org/2000/svg" xmlns:xlink="http://www.w3.org/1999/xlink" x="0px" y="0px"
	 viewBox="0 0 80 85" style="enable-background:new 0 0 80 85;" xml:space="preserve">
<style type="text/css">
	.st0{enable-background:new    ;}
</style>
<g>
	<path d="M51.9,85c-1.7-0.6-2.4-1.9-2.2-3.7c0.1-0.9-0.2-1.6-0.7-2.4c-3.1-3.7-6.2-7.4-9.2-11c-2.4-2.9-1.2-7.1,2.2-8.1
		c1.7-0.5,3.4,0,4.5,1.5c1,1.2,2.1,2.5,3.4,3.9c0-2.2,0-4.4,0-6.5c-0.4,0-0.6,0-1,0c-11.2,0-22.6,0-33.9,0c-2.4,0-3.4-0.9-3.4-3.4
		c0-1.4,0-2.6,0-4.1c0-1.7,1-2.9,2.7-2.9c2.7,0,5.6,0,8.4,0c8.6,0,17.3,0,26,0c0.7,0,1.4-0.1,1.5-1c0.5-2.2,2.6-3.5,5-3.1
		c2.1,0.2,3.7,2.1,3.9,4.4c0,1.2,0,2.4,0,3.6c0,1.2,0,2.4,0,3.6c2-0.7,3.9-0.5,5.2,0.9c2.6-1.9,4.1-1.9,6.6,0
		c0.2-0.1,0.4-0.4,0.6-0.5c1.5-0.9,3-1,4.5-0.4c1.6,0.7,2.5,2.1,2.5,3.9c0,2,0,4,0,5.9c0,0.9-0.5,1.5-1.2,1.5
		c-0.7,0-1.2-0.5-1.4-1.5c0-1.9,0-3.6,0-5.5c0-1.2-0.5-2-1.6-2.2c-1-0.2-1.9,0.2-2.4,1.4c-0.2,0.5-0.6,0.9-1.4,0.9
		c-0.7,0-1.2-0.4-1.4-1c-0.4-0.7-0.9-1.4-1.9-1.4c-0.9,0-1.6,0.5-2,1.4c-0.2,0.6-0.7,1-1.4,0.9c-0.6-0.1-1-0.5-1.4-0.9
		c-0.6-1-1.4-1.5-2.2-1.4c-1,0.1-1.6,0.7-1.9,2c-0.1,0.9-0.6,1.4-1.4,1.2c-0.6,0-1.2-0.5-1.2-1.5c0-3.6,0-7.1,0-10.7
		c0-1.4-0.9-2.2-2.1-2.2c-0.9,0-1.7,0.7-1.9,1.7c0,0.2,0,0.6,0,1c0,6.2,0,12.5,0,18.6c0,0.2,0.1,0.6,0,0.7c-0.2,0.4-0.5,1-0.9,1
		c-0.4,0.1-1-0.1-1.4-0.4c-1.5-1.6-2.9-3.4-4.2-5c-0.4-0.4-0.6-0.7-1-1.2c-0.7-0.9-1.6-1.2-2.5-0.7c-0.9,0.4-1.6,1.6-1.4,2.6
		c0.1,0.5,0.4,1.2,0.7,1.6c3.1,3.7,6.2,7.5,9.4,11.2c0.7,0.9,1.2,1.9,1,3c0,0.4,0,0.6,0,1c0,0.5,0.2,0.6,0.6,0.6c0.6,0,1.4,0,1.9,0
		c4.6,0,9.1,0,13.7,0c4.5,0,7.4-2.9,7.4-7.4c0-1.5,0-2.7,0-4.2c0-0.9,0.5-1.6,1.2-1.6c0.7,0,1.2,0.5,1.2,1.6c0,2.1,0.1,4.4-0.2,6.5
		c-0.5,4-3.6,6.7-7.5,7.5c-0.1,0-0.2,0.1-0.4,0.1C64.3,85,58.1,85,51.9,85z M14,55.8c12,0,23.8,0,35.8,0c0-1.7,0-3.5,0-5
		c-12,0-23.8,0-35.8,0C14,52.6,14,54.1,14,55.8z"/>
	<path d="M3.5,39.3c0-10.7,0-21.6,0-32.3c0-4.1,2.9-7,7-7C17.2,0,24,0,30.6,0c0.5,0,1,0,1.5,0.6c0.6,0.9-0.1,1.9-1.2,1.9
		c-3.7,0-7.4,0-11,0c-3,0-6.1,0-9.2,0c-2.9,0-4.7,1.7-4.7,4.6c0,21.6,0,43.1,0,64.6c0,2.7,1.7,4.6,4.6,4.6c4.9,0,9.9,0,14.6,0
		c6,0,11.7,0,17.7,0c0.2,0,0.5,0,0.7,0c0.6,0,1,0.5,1.2,1.2c0,0.6-0.4,1.2-1,1.4c-0.2,0-0.5,0-0.7,0c-10.9,0-21.7,0-32.6,0
		c-4.4,0-7.2-3.5-7.1-7.1C3.6,60.9,3.5,50.2,3.5,39.3L3.5,39.3z"/>
	<path d="M33.6,43.7c-6.4,0-12.7,0-19.2,0c-2.1,0-3-0.9-3-3c0-1.5,0-2.9,0-4.4c0-1.7,1-2.9,2.7-2.9c1.6,0,3.1,0,4.7,0
		c11.2,0,22.3,0,33.7,0c2.1,0,3,0.9,3,3c0,1.5,0,3,0,4.5c0,1.7-1,2.7-2.7,2.7C46.5,43.7,40.1,43.7,33.6,43.7z M53.2,36
		c-13.1,0-26.1,0-39.2,0c0,1.7,0,3.5,0,5.1c13.1,0,26.1,0,39.2,0C53.2,39.5,53.2,37.7,53.2,36z"/>
	<path d="M33.6,29.5c-6.4,0-12.7,0-19.2,0c-2.1,0-3-0.9-3-3c0-1.5,0-2.9,0-4.4c0-1.7,1-2.9,2.7-2.9c1.6,0,3.1,0,4.7,0
		c11.2,0,22.3,0,33.7,0c2.1,0,3,0.9,3,3c0,1.5,0,3,0,4.5c0,1.7-1,2.7-2.7,2.7C46.5,29.5,40.1,29.5,33.6,29.5z M53.2,21.7
		c-13.1,0-26.1,0-39.2,0c0,1.7,0,3.5,0,5.1c13.1,0,26.1,0,39.2,0C53.2,25.2,53.2,23.5,53.2,21.7z"/>
	<path d="M61,28.7c0-7.1-0.1-14.4,0-21.5c0-3-2.2-4.9-4.9-4.7c-6.5,0.1-13.1,0-19.6,0c-0.2,0-0.5,0-0.7,0c-0.6-0.1-1-0.5-1-1.2
		s0.4-1.2,1-1.2c0.4,0,0.7,0,1.2,0c6.5,0,13,0,19.5,0c4.1,0,7,2.9,7,7c0,14.7,0,29.3,0,43.9c0,0.2,0,0.6-0.1,0.9
		c-0.1,0.6-0.6,1-1.2,0.9c-0.4-0.1-0.7-0.5-1-0.9c0-0.4,0-0.7,0-1C61,43.4,61,36.1,61,28.7L61,28.7z"/>
	<path d="M19.7,71.9c-1.4,0-2.6,0-4.1,0c-2.6,0-4.2-1.6-4.2-4.2c0-0.7,0-1.5,0.1-2.2c0.4-1.9,1.9-3.1,3.7-3.1c3,0,6,0,9,0
		c2,0,3.6,1.5,3.9,3.5c0.1,0.9,0.1,2,0,2.9c-0.2,2.1-1.9,3.4-4,3.5H24C22.5,71.9,21.1,71.9,19.7,71.9z M19.8,69.2L19.8,69.2
		c1.5,0,2.9,0,4.4,0c0.9,0,1.4-0.4,1.5-1.4c0-0.6,0-1.4,0-2.1s-0.5-1.2-1.2-1.2c-3,0-6.1,0-9.1,0c-0.7,0-1.2,0.5-1.2,1.2
		c0,0.7,0,1.4,0,1.9c0,1,0.5,1.5,1.5,1.5C16.8,69.2,18.3,69.2,19.8,69.2z"/>
	<path d="M27.6,52.1c0.9,0,1.5,0.5,1.5,1.2s-0.5,1.2-1.4,1.2c-0.9,0-1.5-0.5-1.5-1.2C26.2,52.7,26.7,52.1,27.6,52.1z"/>
	<path d="M22.5,54.7c-0.7,0-1.5-0.5-1.4-1.4c0-0.7,0.5-1.2,1.4-1.2c0.7,0,1.5,0.5,1.5,1.2C23.8,54.1,23.3,54.7,22.5,54.7z"/>
	<path d="M37.8,54.7c-0.9,0-1.5-0.5-1.5-1.4c0-0.7,0.5-1.2,1.4-1.2s1.5,0.5,1.5,1.2C39.3,54.1,38.6,54.7,37.8,54.7z"/>
	<path d="M17.3,52.1c0.7,0,1.4,0.5,1.4,1.2s-0.5,1.4-1.5,1.2c-0.7,0-1.5-0.5-1.5-1.4C16.1,52.6,16.6,52.1,17.3,52.1z"/>
	<path d="M32.7,54.7c-0.7,0-1.5-0.5-1.5-1.4c0-0.7,0.5-1.2,1.5-1.2c0.7,0,1.4,0.5,1.4,1.2S33.6,54.7,32.7,54.7z"/>
	<g class="st0">
		<path d="M10.4,7.1C10.9,7,11.7,7,12.6,7c1.1,0,1.9,0.1,2.4,0.6c0.5,0.4,0.7,0.9,0.7,1.5c0,0.9-0.6,1.6-1.4,1.7l0,0
			c0.5,0.2,0.7,0.7,1,1.4c0.2,0.9,0.5,1.7,0.6,2.1h-1.7c-0.1-0.2-0.2-0.7-0.5-1.7c-0.2-0.9-0.5-1.1-1.2-1.1H12v2.9h-1.6V7.1z
			 M12,10.4h0.6c0.9,0,1.4-0.4,1.4-1c0-0.6-0.5-1-1.2-1c-0.4,0-0.6,0-0.7,0V10.4z"/>
		<path d="M21.2,11.4h-2.7v1.7h3v1.4h-4.7V7.1h4.6v1.4h-2.9V10h2.7V11.4z"/>
		<path d="M28.9,14.1c-0.5,0.1-1.5,0.4-2.5,0.4c-1.4,0-2.4-0.4-3-1c-0.6-0.6-1-1.6-1-2.7c0-2.5,1.7-3.9,4.2-3.9c1,0,1.7,0.1,2.1,0.4
			l-0.4,1.4c-0.4-0.1-0.9-0.4-1.7-0.4c-1.4,0-2.5,0.7-2.5,2.4c0,1.5,1,2.4,2.4,2.4c0.4,0,0.6,0,0.9-0.1v-1.5h-1.1v-1.2h2.7v4H28.9z"
			/>
		<path d="M31.9,7.1v7.4h-1.6V7.1H31.9z"/>
		<path d="M33.4,12.7c0.5,0.2,1.1,0.5,1.9,0.5c0.7,0,1.1-0.4,1.1-0.7c0-0.5-0.4-0.7-1.2-1c-1.2-0.4-2-1.1-2-2.1
			c0-1.2,1.1-2.2,2.9-2.2c0.9,0,1.5,0.1,1.9,0.4l-0.4,1.4c-0.2-0.1-0.9-0.4-1.5-0.4c-0.7,0-1.1,0.4-1.1,0.7c0,0.5,0.4,0.6,1.4,1
			c1.2,0.2,1.9,1,1.9,2c0,1.2-1,2.2-3,2.2c-0.9,0-1.7-0.2-2.1-0.5L33.4,12.7z"/>
		<path d="M40.8,8.5h-2V7.1h5.6v1.4h-2v6h-1.6C40.8,14.5,40.8,8.5,40.8,8.5z"/>
		<path d="M49.8,11.4H47v1.7h3v1.4h-4.7V7.1h4.6v1.4H47V10h2.7C49.8,10,49.8,11.4,49.8,11.4z"/>
		<path d="M51.2,7.1C51.7,7,52.5,7,53.4,7c1.1,0,1.9,0.1,2.4,0.6c0.5,0.4,0.7,0.9,0.7,1.5c0,0.9-0.6,1.6-1.4,1.7l0,0
			c0.5,0.2,0.7,0.7,1,1.4c0.2,0.9,0.5,1.7,0.6,2.1H55c-0.1-0.2-0.2-0.7-0.5-1.7c-0.2-0.9-0.5-1.1-1.2-1.1h-0.5v2.9h-1.6
			C51.2,14.4,51.2,7.1,51.2,7.1z M52.9,10.4h0.6c0.9,0,1.4-0.4,1.4-1c0-0.6-0.5-1-1.2-1c-0.4,0-0.6,0-0.7,0V10.4z"/>
	</g>
</g>
</svg>
