<?xml version="1.0" encoding="utf-8"?>
<!-- Generator: Adobe Illustrator 23.0.6, SVG Export Plug-In . SVG Version: 6.00 Build 0)  -->
<svg version="1.1" id="Layer_1" xmlns="http://www.w3.org/2000/svg" xmlns:xlink="http://www.w3.org/1999/xlink" x="0px" y="0px"
	 viewBox="0 0 150 150" style="enable-background:new 0 0 150 150;" xml:space="preserve">
<style type="text/css">
	.st0{fill:#071218;}
</style>
<g>
	<g>
		<path class="st0" d="M75,40.65c-19.07,0-34.53,15.46-34.53,34.53c0,19.07,15.46,34.53,34.53,34.53s34.53-15.46,34.53-34.53
			C109.53,56.11,94.07,40.65,75,40.65z M75,106.25c-7.43,0-14.25-2.61-19.6-6.97l0.02,0.02c-7.01-5.7-11.5-14.39-11.5-24.13
			c0-8.04,3.06-15.38,8.07-20.89l0.04-0.05C57.72,48.01,65.91,44.1,75,44.1c17.16,0,31.07,13.91,31.07,31.07
			C106.07,92.34,92.16,106.25,75,106.25z"/>
	</g>
	<g>
		<g>
			<path class="st0" d="M75,45.35c-8.36,0-16.4,3.55-22.04,9.73l-0.05,0.05c-5,5.5-7.75,12.62-7.75,20.06
				c0,9.03,4.02,17.47,11.04,23.17l0,0c5.29,4.3,11.97,6.67,18.79,6.67c16.45,0,29.83-13.38,29.83-29.83S91.45,45.35,75,45.35z
				 M47.02,72.13l-1.3,0.04c0.11-1.12,0.29-2.22,0.53-3.31l1.02,0.05l15.15,0.69c0,0-3.57,6.19-2.95,13.06c0,0,0.02,0.22,0.23,0.28
				c0,0,0.16,0.05,0.34-0.07l3.08-2.39c0,0-0.96,7.22,6.97,11.03c0,0-6.36,0.66-9.35-6.32c0,0-0.08-0.25-0.25-0.25
				c0,0-0.1-0.02-0.24,0.12c0,0-0.87,0.93-1.46,1.56c0,0-1.41-3.32-0.81-9.02c0,0,0.07-0.51-0.06-0.57c0,0-0.14-0.07-0.32,0.08
				l-0.74,0.6c0,0,0.73-2.59,2.43-5.08c0,0,0.38-0.5,0.33-0.62c0,0-0.07-0.11-0.47-0.11L47.02,72.13z M66.5,57.29
				c0,0-1.86-1.26-2.65-2.02c0,0,4.56,1.07,7.32,1.98c-6.08,1.94-10.48,3.67-10.48,3.67c-4.33,1.95-7.08,4.51-7.08,4.51
				c0.11-0.1,0.23-0.2,0.34-0.29c-0.18,0.15-0.35,0.3-0.53,0.46c0.06-0.06,0.12-0.12,0.19-0.18c0.54-0.49,1.91-1.69,3.62-2.78
				l1.39-0.88c4.37-2.53,7.68-3.95,7.68-3.95C66.69,57.65,66.5,57.29,66.5,57.29z M75,104.63c-6.75,0-13.34-2.34-18.57-6.6l0,0
				c-0.01-0.01-0.01-0.01-0.02-0.02c0.29-0.31,0.63-0.65,0.63-0.66c1.41-1.4,5.2-4.33,11.02-2.76c0,0,6.24,1.13,11.24,6.69
				c0,0,7.56-1.44,10.43-12.91c0,0,0.23-0.75-0.23-0.63c-0.46,0.14-0.75,0.38-0.75,0.38c-0.59,0.47-1.69,0.81-1.69,0.81
				c-0.86,0.23-1.32,0.01-1.32,0.01c-1.58-0.69-6.75-5.39-6.75-5.39c-0.52-0.55-0.59-1.05-0.59-1.05c-0.09-1.18,1.01-1.9,1.01-1.9
				s1.71-1.38,9.53-5.34c0,0,2.63-0.27,4.98-0.55c0,0,0.35-0.05,0.52,0.25c0,0,0.52,0.79,0.3,3.08c0,0-0.09,0.41,0.12,0.56
				c0,0,0.12,0.08,0.3-0.05c0,0,4.65-3.62,6.49-7.16c0,0,0.88-1.52-1.35-2.92c0,0-0.34-0.2-0.36-0.48c0,0-0.06-0.32,0.14-0.5
				c0,0,0.29-0.22,0.2-0.54c0,0-0.06-0.3-0.67-0.6c0,0-5.72-3.11-11.45-5.26c0,0-0.6-0.19-0.64-0.32c-0.03-0.14,0.17-0.23,0.17-0.23
				c0.37-0.18,0.91-0.42,0.91-0.42c0.22-0.1,0.17-0.25,0.17-0.25s-17.55-10.23-30.5-6.72l0.37,0.36l2.09,2.16l-6.45-0.31l-1-0.06
				c5.57-6.08,13.48-9.57,21.73-9.57c16.24,0,29.45,13.21,29.45,29.45S91.24,104.63,75,104.63z M78.91,61.8c0,0,0.01,0.08,0.39,0.18
				c0,0,7.33,2.18,9.76,3.22c-3.02-0.69-17.68-2.9-17.68-2.9c2.96-1.95,10.93-1.7,10.93-1.7l-3.27,0.93
				C79.04,61.54,78.82,61.61,78.91,61.8z M95.83,71.94l-10.59-0.4c0,0-2.11,0.03-4.89,1.2c-2.79,1.17-6.2,3.19-8.69,5.2
				c0,0,3.18-5.3,9.02-6.76c0,0,0.82-0.22,3.24-0.1C83.93,71.09,93.15,71.57,95.83,71.94z"/>
		</g>
	</g>
</g>
<g>
	<path class="st0" d="M108.36,149.99H41.64c-7.32,0-13.28-5.96-13.28-13.28V13.64c0-7.32,5.96-13.28,13.28-13.28h66.72
		c7.32,0,13.28,5.96,13.28,13.28v123.07C121.64,144.04,115.68,149.99,108.36,149.99z M41.64,4.88c-4.83,0-8.77,3.93-8.77,8.77
		v123.07c0,4.83,3.93,8.77,8.77,8.77h66.72c4.83,0,8.77-3.93,8.77-8.77V13.64c0-4.83-3.93-8.77-8.77-8.77H41.64z"/>
</g>
<g>
	<path class="st0" d="M90.33,16.67H59.67c-1.25,0-2.25-1.01-2.25-2.25s1.01-2.25,2.25-2.25h30.66c1.25,0,2.25,1.01,2.25,2.25
		S91.57,16.67,90.33,16.67z"/>
</g>
<g>
	<path class="st0" d="M79.72,140.78h-9.44c-1.25,0-2.25-1.01-2.25-2.25s1.01-2.25,2.25-2.25h9.44c1.25,0,2.25,1.01,2.25,2.25
		S80.96,140.78,79.72,140.78z"/>
</g>
</svg>
