<?xml version="1.0" encoding="utf-8"?>
<!-- Generator: Adobe Illustrator 22.0.1, SVG Export Plug-In . SVG Version: 6.00 Build 0)  -->
<svg version="1.1" id="Layer_1" xmlns="http://www.w3.org/2000/svg" xmlns:xlink="http://www.w3.org/1999/xlink" x="0px" y="0px"
	 viewBox="0 0 56.7 56.7" style="enable-background:new 0 0 56.7 56.7;" xml:space="preserve">
<title>nav_as_servicemaintenance</title>
<g>
	<g>
		<path d="M28.3,56.7C12.7,56.7,0,44,0,28.4S12.7,0,28.3,0C44,0,56.7,12.7,56.7,28.4S44,56.7,28.3,56.7z M28.3,2.1
			C13.9,2.1,2.1,13.9,2.1,28.4s11.8,26.2,26.2,26.2s26.2-11.8,26.2-26.2S42.8,2.1,28.3,2.1z M26,49.7l-1.3-0.2
			C14.4,47.7,6.8,38.8,6.8,28.4v-1.1h1.1c9.8,0,17.9,9.5,18.1,21.2L26,49.7z M9,29.5c0.5,8.5,6.5,15.7,14.8,17.7
			C23.1,37.7,16.8,30.1,9,29.5z M30.7,49.7l0-1.3c0.2-11.7,8.3-21.2,18.1-21.2h1.1v1.1c0,10.5-7.5,19.4-17.9,21.2L30.7,49.7z
			 M47.7,29.5c-7.8,0.7-14.1,8.2-14.8,17.7C41.2,45.1,47.2,38,47.7,29.5z M28.3,32.8c-2.5,0-4.5-2-4.5-4.5c0-2.5,2-4.5,4.5-4.5
			c2.5,0,4.5,2,4.5,4.5C32.8,30.8,30.8,32.8,28.3,32.8z M28.3,26c-1.3,0-2.3,1.1-2.3,2.3c0,1.3,1.1,2.3,2.3,2.3c1.3,0,2.3-1,2.3-2.3
			C30.7,27.1,29.6,26,28.3,26z M49.1,22.6H7.6l0.5-1.4c3.1-8.6,11.2-14.4,20.2-14.4c9,0,17.1,5.8,20.2,14.4L49.1,22.6z M10.7,20.5
			H46C42.9,13.5,36,8.9,28.3,8.9C20.7,8.9,13.8,13.5,10.7,20.5z"/>
	</g>
</g>
</svg>
