<?xml version="1.0" encoding="utf-8"?>
<!-- Generator: Adobe Illustrator 22.0.1, SVG Export Plug-In . SVG Version: 6.00 Build 0)  -->
<svg version="1.1" id="Layer_1" xmlns="http://www.w3.org/2000/svg" xmlns:xlink="http://www.w3.org/1999/xlink" x="0px" y="0px"
	 viewBox="0 0 56.7 56.7" style="enable-background:new 0 0 56.7 56.7;" xml:space="preserve">
<title>nav_as_servicemaintenance</title>
<g>
	<g>
		<path d="M0,21.3c0.2-1,0.4-2,0.7-2.9C2.6,12,7.1,8.1,13.2,6.2c8.7-2.7,16.7-1.2,23.4,5.2c2.8,2.7,4.3,6.1,4.7,10
			c1.8,0.5,3.6,0.8,5.2,1.5c4.8,1.8,8.4,4.9,9.8,10c0.3,1.1,0.4,2.1,0.4,3.2c0,0.6-0.2,1.3-0.4,1.9c-0.2,0.7-0.4,1.4-0.6,2.1
			c-0.9,2.4-2.5,4.5-4.7,5.9c-0.6,0.4-0.7,0.8-0.4,1.4c0.4,0.9,0.8,1.8,1.1,2.8c0.1,0.5,0.1,1.2-0.2,1.4c-0.4,0.3-1.1,0.3-1.6,0.1
			c-1.6-0.7-3.1-1.6-4.8-2.3c-0.5-0.2-1.1-0.3-1.6-0.2c-6.1,1.1-11.8,0.3-16.8-3.6c-1.6-1.3-2.8-3.1-4.1-4.7
			c-0.4-0.5-0.7-0.7-1.4-0.8c-2.6-0.3-5.2-0.7-7.8-1c-0.5-0.1-1.1-0.1-1.5,0.2c-1.7,0.9-3.4,2-5.2,2.9c-0.5,0.2-1.3,0.3-1.6,0
			c-0.3-0.3-0.3-1.2-0.1-1.6c0.6-1.5,1.4-3,2.2-4.6c-2.9-2.1-5-4.7-6.2-8.1C0.6,26.5,0.4,25,0,23.5C0,22.8,0,22,0,21.3z M39.4,21.3
			c-0.2-3-1.4-5.5-3.2-7.7C32.7,9.4,28,7.2,22.6,6.8c-7-0.5-13.1,1.5-17.7,7c-2.4,2.9-3.5,6.2-3,10c0.6,4.6,2.8,8.2,6.7,10.7
			C9.7,35.3,9.8,36,9.2,37c-0.3,0.5-1,1.8-1.4,2.6c0.8-0.4,1.5-1.1,2.3-1.5c1-0.6,2.1-0.8,3.2-0.8c0.8,0,1.7,0.1,2.5,0.1
			c1.4,0.2,2.8,0.5,4.2,0.7c0.4,0.1,0.9,0.2,1.3,0.1c0,0,0.1,0,0.1,0C20,29.3,28.3,21.4,39.4,21.3z M49,49c-0.1-0.3-0.3-0.8-0.4-1
			c-0.8-2.1-0.8-2.1,1.1-3.4c5.3-3.5,8-11.5,1.1-17.4c-6-5-15.9-5.5-22.3-1c-6.8,4.7-7.3,12.6-1.1,17.6c3.9,3.1,8.4,4.4,13.3,3.8
			c2.8-0.4,5.5-0.7,7.9,1.1C48.6,48.8,48.8,49,49,49z"/>
	</g>
	<g>
		<path d="M27.6,16.6c0,1.2-0.9,2.2-2.1,2.1c-1.2,0-2.1-1-2.1-2.2c0-1.1,0.9-2,2.1-2.1C26.7,14.5,27.6,15.4,27.6,16.6z"/>
	</g>
	<g>
		<path d="M16.7,16.7c0,1.2-1,2.1-2.1,2.1c-1.1,0-2.1-1.1-2.1-2.2c0-1.1,1-2,2.1-2C15.8,14.5,16.7,15.5,16.7,16.7z"/>
	</g>
	<g>
		<path d="M35.8,30.8c0,1.2-0.9,2-2,2c-1.1,0-2-1-2-2.1c0-1.1,1-2,2.1-1.9C35,28.9,35.8,29.7,35.8,30.8z"/>
	</g>
	<g>
		<path d="M46.2,30.8c0,1.2-0.8,2-2,2c-1.1,0-2-0.9-2-2c0-1.1,0.8-1.9,2-2C45.3,28.8,46.1,29.6,46.2,30.8z"/>
	</g>
</g>
</svg>
